<?xml version="1.0" standalone="no"?><!DOCTYPE svg PUBLIC "-//W3C//DTD SVG 1.1//EN" "http://www.w3.org/Graphics/SVG/1.1/DTD/svg11.dtd"><svg t="1721353038664" class="icon" viewBox="0 0 1024 1024" version="1.1" xmlns="http://www.w3.org/2000/svg" p-id="6354" xmlns:xlink="http://www.w3.org/1999/xlink" width="256" height="256"><path d="M310.4 739.2c-41.6 0-76.8 35.2-76.8 76.8v134.4c0 3.2 3.2 6.4 6.4 6.4s6.4-3.2 6.4-6.4v-89.6c25.6 35.2 73.6 44.8 108.8 19.2s44.8-73.6 19.2-108.8c-12.8-19.2-38.4-32-64-32z m0 140.8c-35.2 0-64-28.8-64-64s28.8-64 64-64 64 28.8 64 64-28.8 64-64 64zM496 739.2c41.6 0 76.8 35.2 76.8 76.8V889.6c0 3.2-3.2 6.4-6.4 6.4s-6.4-3.2-6.4-6.4V864c-16 19.2-38.4 32-64 32-41.6 0-76.8-35.2-76.8-76.8 0-44.8 35.2-80 76.8-80z m64 76.8c0-35.2-25.6-60.8-57.6-64-35.2-3.2-67.2 22.4-67.2 57.6-3.2 35.2 22.4 67.2 57.6 67.2 35.2 3.2 67.2-22.4 67.2-57.6v-3.2zM192 825.6c-6.4-6.4-19.2-12.8-38.4-16-35.2-9.6-41.6-19.2-41.6-28.8 0-6.4 3.2-12.8 9.6-16 6.4-6.4 16-9.6 28.8-9.6 25.6 0 41.6 12.8 41.6 12.8 3.2 3.2 6.4 3.2 9.6 0 3.2-3.2 3.2-6.4 0-9.6 0 0-19.2-19.2-51.2-19.2-16 0-28.8 3.2-38.4 12.8-9.6 6.4-12.8 16-16 28.8 0 28.8 28.8 38.4 51.2 41.6 32 6.4 38.4 16 38.4 32 0 22.4-25.6 28.8-38.4 28.8-25.6 0-38.4-12.8-41.6-12.8h-3.2c-3.2-6.4-6.4-3.2-6.4 3.2 0 3.2 0 3.2 3.2 6.4 3.2 0 19.2 16 51.2 16 16 0 28.8-3.2 38.4-12.8s12.8-19.2 12.8-28.8c3.2-12.8-3.2-22.4-9.6-28.8zM681.6 752c16 0 32 6.4 44.8 16 3.2 3.2 6.4 3.2 9.6 0 3.2-3.2 3.2-6.4 0-9.6-32-28.8-80-28.8-108.8 3.2-28.8 32-28.8 80 3.2 108.8 28.8 28.8 76.8 28.8 105.6 0 3.2-3.2 3.2-6.4 0-9.6-3.2-3.2-6.4-3.2-9.6 0-25.6 25.6-67.2 22.4-89.6-3.2-25.6-25.6-22.4-67.2 3.2-89.6 9.6-9.6 25.6-16 41.6-16zM848 739.2c-41.6 0-76.8 35.2-76.8 76.8 0 41.6 35.2 76.8 76.8 76.8 22.4 0 41.6-9.6 57.6-25.6 3.2-3.2 3.2-6.4 0-9.6-3.2-3.2-6.4-3.2-9.6 0-12.8 12.8-28.8 19.2-44.8 19.2-32 0-60.8-25.6-64-57.6h134.4c3.2 0 6.4-3.2 6.4-6.4-3.2-38.4-35.2-73.6-80-73.6z m-64 70.4c3.2-35.2 35.2-60.8 70.4-57.6 28.8 3.2 54.4 25.6 57.6 54.4l-128 3.2zM428.8 332.8H480V284.8L268.8 73.6c-16-12.8-38.4-9.6-51.2 6.4-9.6 12.8-9.6 32 0 44.8l211.2 208zM550.4 332.8h51.2l211.2-211.2c12.8-16 9.6-38.4-6.4-51.2-12.8-9.6-32-9.6-44.8 0l-211.2 214.4v48zM480 406.4h-51.2l-211.2 211.2c-12.8 12.8-12.8 35.2 0 51.2 12.8 12.8 35.2 12.8 51.2 0l211.2-211.2v-51.2zM601.6 406.4h-51.2v51.2l211.2 211.2c12.8 12.8 35.2 12.8 51.2 0 12.8-12.8 12.8-35.2 0-51.2l-211.2-211.2z" p-id="6355" fill="#ffffff"></path></svg>