<?xml version="1.0" standalone="no"?><!DOCTYPE svg PUBLIC "-//W3C//DTD SVG 1.1//EN" "http://www.w3.org/Graphics/SVG/1.1/DTD/svg11.dtd"><svg t="1697226555814" class="icon" viewBox="0 0 1024 1024" version="1.1" xmlns="http://www.w3.org/2000/svg" p-id="15526" xmlns:xlink="http://www.w3.org/1999/xlink" width="200" height="200"><path d="M237.8 372.8c0-151.2 123-274.2 274.2-274.2s274.2 123 274.2 274.2S663.2 647 512 647 237.8 524 237.8 372.8z m641.2 0C879 170.4 714.4 5.8 512 5.8S145 170.4 145 372.8c0 186.6 140 341.2 320.6 364v66.2h-76c-1.6 0-3 0-4.6 0.2-1.6 0.2-3 0.4-4.6 0.6s-3 0.6-4.4 1.2c-1.4 0.4-2.8 1-4.2 1.6-1.4 0.6-2.8 1.2-4.2 2s-2.6 1.4-4 2.4c-1.2 0.8-2.4 1.8-3.6 2.8-1.2 1-2.2 2-3.4 3-1 1-2 2.2-3 3.4-1 1.2-1.8 2.4-2.8 3.6-0.8 1.2-1.6 2.6-2.4 4-0.8 1.4-1.4 2.8-2 4.2-0.6 1.4-1 2.8-1.6 4.2-0.4 1.4-0.8 3-1.2 4.4s-0.6 3-0.6 4.6c-0.2 1.6-0.2 3-0.2 4.6 0 1.6 0 3 0.2 4.6 0.2 1.6 0.4 3 0.6 4.6s0.6 3 1.2 4.4c0.4 1.4 1 2.8 1.6 4.2 0.6 1.4 1.2 2.8 2 4.2 0.8 1.4 1.4 2.6 2.4 4 0.8 1.2 1.8 2.4 2.8 3.6 1 1.2 2 2.2 3 3.4 1 1 2.2 2 3.4 3s2.4 1.8 3.6 2.8c1.2 0.8 2.6 1.6 4 2.4 1.4 0.8 2.8 1.4 4.2 2 1.4 0.6 2.8 1 4.2 1.6s3 0.8 4.4 1.2c1.4 0.2 3 0.6 4.6 0.6s3 0.2 4.6 0.2h76v76c0 1.6 0 3 0.2 4.6 0.2 1.6 0.4 3 0.6 4.6s0.6 3 1.2 4.4c0.4 1.4 1 2.8 1.6 4.2 0.6 1.4 1.2 2.8 2 4.2 0.8 1.4 1.4 2.6 2.4 4 0.8 1.2 1.8 2.4 2.8 3.6s2 2.2 3 3.4c1 1 2.2 2 3.4 3 1.2 1 2.4 1.8 3.6 2.8 1.2 0.8 2.6 1.6 4 2.4 1.4 0.8 2.8 1.4 4.2 2 1.4 0.6 2.8 1 4.2 1.6 1.4 0.4 3 0.8 4.4 1.2 1.4 0.2 3 0.6 4.6 0.6 1.6 0.2 3 0.2 4.6 0.2 1.6 0 3 0 4.6-0.2s3-0.4 4.6-0.6 3-0.6 4.4-1.2c1.4-0.4 2.8-1 4.2-1.6 1.4-0.6 2.8-1.2 4.2-2 1.4-0.8 2.6-1.4 4-2.4 1.2-0.8 2.4-1.8 3.6-2.8 1.2-1 2.2-2 3.4-3 1-1 2-2.2 3-3.4 1-1.2 1.8-2.4 2.8-3.6 0.8-1.2 1.6-2.6 2.4-4 0.8-1.4 1.4-2.8 2-4.2 0.6-1.4 1-2.8 1.6-4.2s0.8-3 1.2-4.4c0.2-1.4 0.6-3 0.6-4.6 0.2-1.6 0.2-3 0.2-4.6v-76h76c1.6 0 3 0 4.6-0.2 1.6-0.2 3-0.4 4.6-0.6 1.4-0.2 3-0.6 4.4-1.2 1.4-0.4 2.8-1 4.2-1.6 1.4-0.6 2.8-1.2 4.2-2 1.4-0.8 2.6-1.4 4-2.4 1.2-0.8 2.4-1.8 3.6-2.8 1.2-1 2.2-2 3.4-3 1-1 2-2.2 3-3.4 1-1.2 1.8-2.4 2.8-3.6 0.8-1.2 1.6-2.6 2.4-4 0.8-1.4 1.4-2.8 2-4.2 0.6-1.4 1-2.8 1.6-4.2 0.4-1.4 0.8-3 1.2-4.4 0.2-1.4 0.6-3 0.6-4.6 0.2-1.6 0.2-3 0.2-4.6 0-1.6 0-3-0.2-4.6-0.2-1.6-0.4-3-0.6-4.6-0.2-1.4-0.6-3-1.2-4.4-0.4-1.4-1-2.8-1.6-4.2-0.6-1.4-1.2-2.8-2-4.2-0.8-1.4-1.4-2.6-2.4-4-0.8-1.2-1.8-2.4-2.8-3.6-1-1.2-2-2.2-3-3.4-1-1-2.2-2-3.4-3-1.2-1-2.4-1.8-3.6-2.8-1.2-0.8-2.6-1.6-4-2.4-1.4-0.8-2.8-1.4-4.2-2-1.4-0.6-2.8-1-4.2-1.6-1.4-0.4-3-0.8-4.4-1.2s-3-0.6-4.6-0.6c-1.6-0.2-3-0.2-4.6-0.2h-76v-66.2c179.8-22.8 319.8-177.4 319.8-364z" p-id="15527" fill="#FE009F"></path></svg>