<?xml version="1.0" standalone="no"?><!DOCTYPE svg PUBLIC "-//W3C//DTD SVG 1.1//EN" "http://www.w3.org/Graphics/SVG/1.1/DTD/svg11.dtd"><svg t="1697041695718" class="icon" viewBox="0 0 1024 1024" version="1.1" xmlns="http://www.w3.org/2000/svg" p-id="2655" xmlns:xlink="http://www.w3.org/1999/xlink" width="200" height="200"><path d="M512.0512 85.8112l0.2048-0.512 0.1536 1.28 4.096 8.2944 12.8512 26.624 3.4304 7.0656 2.56 5.2224 1.7408 3.4816 2.56 5.12 2.5088 5.0688 1.6896 3.3792 1.7408 3.328 1.7408 3.3792 1.7408 3.3792 1.7408 3.3792 1.8432 3.4304 1.792 3.3792 1.8944 3.4816 1.8944 3.4816 1.9456 3.5328 1.9456 3.584 1.024 1.7408 2.048 3.6352 2.1504 3.6864 2.1504 3.7888 2.2016 3.7888 2.304 3.8912 2.3552 3.9936 2.4576 4.0448 2.5088 4.096 2.56 4.2496 2.6624 4.3008 2.7648 4.4544 1.3824 2.2528 2.9184 4.608 2.9696 4.6592 1.536 2.4064 3.1232 4.864 3.2256 5.0176 3.3792 5.12 3.4304 5.3248 3.584 5.4272 1.792 2.7648 3.7888 5.632 3.84 5.8368 2.048 2.9696a240.64 240.64 0 0 1-37.0176-13.3632c-46.592 60.5184-65.3312 128.5632-72.6528 166.912l-0.6144 3.328a375.296 375.296 0 0 0-1.536 9.0624l-0.4096 2.6112-0.3584 2.5088-0.1536 1.1264-0.256 2.2016-0.256 1.9456-0.2048 1.792-0.256 2.2016-0.1536 1.7408-0.2048 1.9968-0.2048-1.3824-0.2048 1.3824-0.1536-1.536-0.1024-1.024-0.1024-1.1776-0.256-2.2016-0.2048-1.792-0.256-1.9456-0.256-2.2016-0.3584-2.3552-0.2048-1.28-0.3584-2.6112a376.4736 376.4736 0 0 0-1.536-9.0624l-0.6144-3.328c-7.3216-38.3488-26.0608-106.3936-72.6528-166.912a240.64 240.64 0 0 1-36.9664 13.312l3.9424-5.8368 3.7888-5.7344 1.8432-2.816 3.6352-5.4784 1.792-2.7136 3.4304-5.2736 3.3792-5.12 3.2256-5.0688 3.1232-4.864 3.072-4.7616 1.4336-2.3552 2.9184-4.608 2.7648-4.4544 1.3824-2.2016 2.6624-4.3008 2.56-4.2496 2.56-4.096 2.4064-4.096 2.3552-3.9424 2.304-3.8912 2.2016-3.7888 2.1504-3.7888 2.1504-3.6864 2.048-3.584 2.048-3.584 1.8944-3.584 1.024-1.7408 1.8432-3.4816 1.8944-3.4816 1.792-3.3792 1.8432-3.4304 1.7408-3.3792 1.7408-3.3792 1.7408-3.3792 2.56-5.0176 1.7408-3.3792 1.6896-3.4304 2.56-5.12 3.3792-6.8608 1.6896-3.5328 6.144-12.5952 10.3424-21.4016 3.072-6.2464 0.1536-1.2288 0.2048 0.4608z m0 127.3856l-0.8192 1.1264-0.8192 1.1264-0.4608 0.5632-0.8704 1.1776-1.024 1.2288-0.4608 0.6144-1.024 1.28-0.512 0.6656-1.1264 1.28-1.1264 1.3312-1.1776 1.3824-0.6144 0.7168-1.28 1.3824-1.28 1.4336-1.3824 1.4336-0.7168 0.7168-1.4336 1.4848a181.76 181.76 0 0 1-2.2016 2.2016l-1.536 1.536a197.8368 197.8368 0 0 1-21.7088 17.92c15.4624 28.7232 25.7536 57.088 32.4608 83.3536l0.768 3.072c1.1264 4.608 2.1504 9.1648 3.072 13.6192l0.5632 2.9696 0.3072 1.4848 0.5632 2.9184 0.512 2.9184 0.512 2.8672 0.512 2.8672 0.4096 2.816 0.4608 2.816 0.3584 2.7648 0.4096 2.7136 0.1536 1.3824 0.3584 2.7136 0.1536 1.3312 0.3072-2.7136 0.2048-1.3312 0.3584-2.7136 0.1536-1.3824 0.4096-2.7648 0.4608-2.816 0.2048-1.4336 0.4608-2.816 0.256-1.4336 0.512-2.8672 0.512-2.9184 0.512-2.9184 0.6144-2.9696 0.6144-2.9696 0.3584-1.536 0.6144-2.9696a368.128 368.128 0 0 1 35.0208-94.1056 199.168 199.168 0 0 1-18.432-14.848l-1.6384-1.536-1.5872-1.536-1.536-1.4848-1.536-1.4848a178.3296 178.3296 0 0 1-4.2496-4.352l-1.28-1.4336-0.6656-0.7168-1.2288-1.3824-0.6144-0.6656-1.1776-1.3824-1.0752-1.3312-1.0752-1.28-0.512-0.6144-1.024-1.28-0.9728-1.2288-0.9216-1.1776-0.8192-1.1264-0.8192-1.1264-0.4096-0.512zM142.336 298.496l0.3072 0.4096h-0.512l1.024 0.7168 3.8912 5.7856 20.1216 29.5936 3.2768 4.864 3.2256 4.8128 3.1744 4.7616 2.0992 3.1744 2.048 3.1744 3.1232 4.7104 3.072 4.7616 2.048 3.2256 2.048 3.2256 2.048 3.2768 2.048 3.2768 2.0992 3.328 2.048 3.3792 2.0992 3.4816 1.024 1.7408 2.1504 3.4816 2.0992 3.584 3.2256 5.5808 2.2016 3.7888 2.2016 3.8912 2.2016 3.9424 1.1776 2.048 2.2528 4.096 1.1776 2.1504 2.3552 4.3008 2.4064 4.4032 2.4064 4.5056 2.5088 4.6592 2.5088 4.8128 2.56 4.9152 2.6624 5.12 2.7136 5.1712 2.7136 5.376 1.4336 2.7648 2.8672 5.632 2.9184 5.8368 2.9696 5.9392 3.072 6.144 3.072 6.4c3.584-13.6704 5.8368-26.624 6.9632-38.7072 81.408-10.8032 154.2656 10.5472 188.672 23.3984l2.7648 1.024 2.6112 1.024 1.2288 0.512 2.304 0.8704 2.1504 0.8704 0.9728 0.4096 1.8432 0.768 1.6384 0.7168 1.3824 0.6144 1.2288 0.512 1.4336 0.7168 1.3824 0.6144-1.0752-0.8704 1.28 0.512-1.2288-0.8704-1.28-0.9216-1.6896-1.2288-1.3312-1.024-1.536-1.0752-1.6384-1.28-1.792-1.4336-1.9968-1.536-1.024-0.8192-2.1504-1.7408-2.304-1.8944c-28.3136-23.3472-83.2512-75.6736-114.5856-151.552 9.9328-7.0656 20.0192-15.4112 30.0544-25.344l-3.584 0.256-6.9632 0.4096-6.7584 0.4608-6.5536 0.3584-6.4 0.3584-6.2464 0.3584-6.0416 0.3072-5.888 0.256-2.8672 0.1536-5.632 0.256-2.7648 0.1024-5.4272 0.2048-2.6624 0.1024-5.2224 0.1536-5.0688 0.1536-4.9664 0.1024-2.4064 0.0512-4.7616 0.1024-4.7104 0.1024h-4.5568l-4.4544 0.0512h-12.9024l-4.096-0.0512-4.096-0.1024-4.0448-0.0512-3.9424-0.1024-3.9424-0.1024-3.8912-0.1536-1.9456-0.0512-3.7888-0.1536-3.84-0.2048-3.7888-0.1536-3.7888-0.2048-5.632-0.3072-3.7888-0.2048-3.7888-0.256-5.7344-0.3584-7.68-0.512-9.8816-0.7168-27.5456-1.9968-9.216-0.6656-1.1264-0.512zM281.088 357.1712c8.4992-2.4064 17.92-5.6832 27.9552-10.24 25.344 40.96 55.6032 71.6288 83.456 93.952l2.4064 1.9456 3.584 2.7648 2.4064 1.8432 2.3552 1.792-2.56-1.1264-2.56-1.024-1.3312-0.5632-2.6624-1.0752-2.7136-1.024-2.7136-1.0752-2.7648-1.024-2.816-1.0752a385.024 385.024 0 0 0-4.2496-1.536l-2.9184-1.024a373.248 373.248 0 0 0-4.4032-1.4336l-2.9696-1.024a369.0496 369.0496 0 0 0-101.0688-17.408 198.2464 198.2464 0 0 0-4.1984-25.4976l-0.512-2.1504a182.1696 182.1696 0 0 0-1.024-4.1472l-0.5632-2.048-0.3072-0.9216-0.5632-1.9456-0.5632-1.8944-0.5632-1.792-0.6144-1.792-0.5632-1.6896-0.6144-1.6384-0.5632-1.6384-0.6144-1.536-0.5632-1.536-0.3072-0.6656-0.5632-1.4336-0.5632-1.3312-0.5632-1.3312-0.5632-1.2288 1.3312-0.1024 2.048-0.256 1.536-0.2048 1.4848-0.2048 0.768-0.1024 1.536-0.256 1.6384-0.256 1.6896-0.3072 0.8704-0.1536 1.7408-0.3584 1.7408-0.3584 0.9216-0.2048 1.8432-0.4096 1.8944-0.4608 0.9728-0.2048 1.9456-0.512 1.9456-0.512 2.048-0.512z" p-id="2656" fill="#91CEDA"></path><path d="M582.8096 445.7984c-0.8192-0.4096-4.8128-47.9744-4.8128-47.9744s-43.7248 19.4048-44.032 19.8656c-7.936 21.9648-17.4592 67.4816-21.504 87.552-4.096-20.48-14.1824-67.9936-21.9136-87.552-0.768 0.4096-44.032-19.8656-44.032-19.8656s-5.0176 47.5648-4.7616 48.0256c15.104 17.8176 49.7664 48.8448 65.1264 62.3616-19.7632-6.656-66.048-21.6576-86.8352-24.7808 0 0.8704-39.2192 28.16-39.2192 28.16s38.7072 28.16 39.2192 28.16c23.04-4.1472 67.2256-18.6368 86.5792-25.1904-15.5648 13.824-51.712 46.2848-64.8704 62.72 0.768 0.512 4.8128 48.0256 4.8128 48.0256s43.7248-19.4048 44.032-19.8656c7.8848-21.9648 17.408-67.4816 21.504-87.5008 4.096 20.3776 14.1824 67.9424 21.9136 87.552 0.768-0.512 43.9808 19.8144 43.9808 19.8144s5.0688-47.5648 4.8128-48.0256c-15.104-17.8176-49.7664-48.8448-65.1264-62.3616 19.7632 6.656 66.048 21.6576 86.8352 24.7808 0-0.8704 39.2192-28.16 39.2192-28.16s-38.7072-28.16-39.2192-28.16c-23.04 4.1472-67.2768 18.6368-86.6304 25.1904 15.616-13.824 51.7632-46.2848 64.9216-62.7712z" p-id="2657" fill="#91CEDA"></path><path d="M763.5456 525.312l3.1232 6.3488 3.072 6.144 2.9696 5.9904 2.9184 5.7856 2.8672 5.632 1.3824 2.7648 2.7648 5.376 2.7136 5.2224 2.6112 5.12 2.56 4.9152 2.56 4.7616 2.5088 4.6592 2.4064 4.5568 2.4064 4.4032 2.3552 4.3008 1.1776 2.048 2.2528 4.1472 1.1264 2.048 2.2528 3.9936 2.2016 3.84 2.2016 3.84 3.2256 5.5296 2.0992 3.584 2.1504 3.5328 1.024 1.7408 2.048 3.4304 2.0992 3.3792 2.048 3.328 2.048 3.328 2.048 3.2256 2.048 3.2256 2.048 3.2256 3.072 4.7616 3.1232 4.7616 2.048 3.1744 2.1504 3.1232 3.1744 4.7616 3.2256 4.8128 3.2768 4.864 20.1216 29.6448 3.8912 5.7344 1.024 0.768h-0.512l0.256 0.4096-1.1776-0.512-13.6192-0.9728-23.04-1.6896-9.9328-0.7168-7.68-0.512-5.7344-0.3584-3.7888-0.256-3.7888-0.2048-5.632-0.3072-3.7888-0.2048-3.7888-0.1536-1.8944-0.1024-3.84-0.1536-1.9456-0.0512-3.84-0.1536-3.8912-0.1024-3.9424-0.1024-2.048-0.0512-3.9936-0.1024-4.096-0.0512-4.096-0.0512h-21.9136l-4.7104 0.1024-4.7616 0.1024-4.9152 0.1024-5.0176 0.1536-5.12 0.1536-5.2736 0.2048-2.7136 0.1024-5.4784 0.2048-2.816 0.1024-5.6832 0.256-2.9184 0.1536-5.9904 0.256-6.144 0.3584-6.2976 0.3584-6.5024 0.3584-6.656 0.4096-3.4304 0.2048-6.9632 0.4608-3.584 0.2048c10.0864-9.9328 20.1728-18.2784 30.1056-25.2928-31.744-76.9536-87.808-129.6896-115.712-152.576l-2.304-1.792-1.024-0.8704-2.048-1.5872-0.9728-0.768-1.792-1.3824-1.6896-1.28-1.4848-1.1264-1.3312-1.024-1.6896-1.1776-1.28-0.9216-1.28-0.8704 1.3312 0.512-1.0752-0.9216 1.3824 0.6656 1.4336 0.6656 1.1776 0.512 1.4336 0.6144 1.6384 0.7168 1.8432 0.768 1.024 0.4096 2.048 0.8704 2.3552 0.9216 2.5088 1.024a317.44 317.44 0 0 0 5.5296 2.048l3.072 1.1264c35.9936 12.9024 106.1376 32.1024 184.1664 21.7088 1.1264-12.0832 3.328-25.0368 6.912-38.656z m-142.6432 49.5104l2.3552 1.792 2.4064 1.792 3.584 2.816 2.4064 1.8944a371.0464 371.0464 0 0 1 83.456 94.0032c10.0352-4.608 19.456-7.8848 27.9552-10.24l2.048-0.6144 1.9456-0.512 1.9456-0.512 0.9728-0.2048 1.8944-0.4608 1.8432-0.4096 0.9216-0.1536 1.7408-0.4096 0.9216-0.1536 1.6896-0.3072 1.6896-0.3072 1.6384-0.256 1.536-0.256 0.768-0.1024 1.536-0.2048 1.4336-0.2048 2.0992-0.256 1.3312-0.1536-0.512-1.2288-0.6144-1.28-0.5632-1.3824-0.5632-1.3824-0.6144-1.4848-0.5632-1.536-0.3072-0.768-0.5632-1.5872-0.3072-0.8192-0.5632-1.6896-0.3072-0.8704-0.6144-1.7408-0.256-0.9216-0.5632-1.8432a189.44 189.44 0 0 1-1.4336-4.864l-0.512-2.048-0.3072-1.024-0.512-2.048-0.512-2.2016-0.512-2.2016a199.8336 199.8336 0 0 1-3.6864-23.296 368.896 368.896 0 0 1-101.0688-17.408l-2.9696-1.024a369.92 369.92 0 0 1-4.4544-1.4336l-2.8672-1.024a342.8352 342.8352 0 0 1-4.2496-1.536l-2.816-1.024-2.7648-1.024-2.7136-1.024-2.7136-1.0752-2.6624-1.0752-1.28-0.512-2.56-1.1264-2.56-1.0752zM880.5376 299.008l1.1776-0.512-0.256 0.4096h0.512l-1.024 0.7168-7.68 11.3152-14.1312 20.7872-2.2016 3.2768-3.2768 4.864-4.3008 6.4-2.0992 3.1744-2.0992 3.1744-2.048 3.1744-2.0992 3.1232-2.048 3.1744-2.048 3.1744-2.048 3.2256-2.048 3.2256-2.048 3.2768-2.048 3.2768-2.0992 3.328-2.048 3.3792-2.0992 3.4816-2.0992 3.4816-1.024 1.7408-2.1504 3.584-2.1504 3.6864-2.1504 3.7888-1.1264 1.8944-2.2016 3.8912-2.2528 3.9424-1.1264 2.048-2.2528 4.096-1.1776 2.1504-2.3552 4.3008-1.1776 2.1504-2.4064 4.5056-2.4576 4.608-2.56 4.7104-1.2288 2.4064-2.56 4.9152-2.6624 5.12-2.7136 5.1712-2.7136 5.376-2.8672 5.5808-1.4336 2.816-2.9184 5.8368-2.9696 5.9392-3.072 6.144-3.072 6.4a240.0768 240.0768 0 0 1-6.9632-38.7072c-81.408-10.8032-154.2656 10.5472-188.672 23.3984l-2.7648 1.024-2.6112 1.024-2.4064 0.9728-1.1264 0.4096-2.1504 0.8704-1.8944 0.8192-1.7408 0.7168-2.2016 1.024-2.2528 0.9728-1.792 0.8192 0.8704-0.7168 0.2048-0.1536-1.3312 0.512 1.28-0.8704 1.28-0.9216 1.6896-1.2288 1.3312-1.024 1.536-1.0752 1.6384-1.28 1.792-1.4336 1.9968-1.536 2.048-1.6384 2.2528-1.8432c27.9552-22.8864 83.968-75.6224 115.7632-152.576a241.152 241.152 0 0 1-30.0544-25.2928l7.0656 0.512 3.4304 0.1536 6.8096 0.4608 6.5536 0.3584 6.4 0.3584 6.2464 0.3584 6.0416 0.3072 5.888 0.256 2.8672 0.1536 5.632 0.256 5.4784 0.2048 5.376 0.2048 5.1712 0.1536 5.12 0.1536 4.9152 0.1024 4.864 0.1024 2.3552 0.0512 4.6592 0.1024h4.608l4.4544 0.0512h12.9024l2.048-0.0512 4.096-0.0512h2.048l4.0448-0.1024 1.9968-0.0512 3.9424-0.1024 1.9456-0.0512 3.8912-0.1536 3.84-0.1536 1.8944-0.0512 3.84-0.2048 3.7888-0.1536 3.7888-0.2048 3.7376-0.2048 5.6832-0.3072 3.7888-0.256 3.7888-0.2048 7.68-0.512 5.888-0.4096 29.0304-2.1504 11.264-0.8192 2.3552-0.1536z m-165.4272 47.9232c-25.344 40.96-55.6544 71.6288-83.456 93.952l-2.4064 1.9456a386.304 386.304 0 0 1-3.584 2.7648l-2.4064 1.8432-2.3552 1.792 2.56-1.1264 2.56-1.024 1.3312-0.5632 2.6624-1.0752 1.3312-0.512 2.7136-1.0752 1.3824-0.512 2.7648-1.024 2.816-1.0752 2.816-1.024 2.8672-1.024 4.4032-1.4848 2.9696-0.9728 2.9696-0.9216 3.072-0.9728a368.64 368.64 0 0 1 96.512-15.9744c0.768-7.5776 1.8944-14.6432 3.2256-21.0944l0.512-2.2528 0.2048-1.1264 0.512-2.1504 0.512-2.1504 0.512-2.048 0.3072-1.024 0.512-2.048 0.3072-0.9216 0.512-1.9456 0.6144-1.8944 0.5632-1.792 0.3072-0.8704 0.5632-1.7408 0.3072-0.8704 0.6144-1.6384 0.256-0.8192 0.6144-1.5872 0.3072-0.768 0.5632-1.536 0.5632-1.3824 0.3072-0.7168 0.5632-1.3312 0.5632-1.3312 0.512-1.2288-1.28-0.1024-2.048-0.256-1.536-0.2048-1.4848-0.2048-1.536-0.256-1.5872-0.256-1.6384-0.256-1.7408-0.3072-1.7408-0.3584-1.7408-0.3584-0.9216-0.2048-1.8432-0.4096-0.9728-0.2048-1.8944-0.512a178.7904 178.7904 0 0 1-4.9152-1.2288l-2.048-0.6144a189.2352 189.2352 0 0 1-3.1232-0.9216l-2.1504-0.6656a199.6288 199.6288 0 0 1-21.6576-8.3456zM267.4688 563.968a240.2816 240.2816 0 0 0-6.912-38.656l-3.1232 6.3488-3.072 6.144-2.9696 5.9904-2.9184 5.7856-1.4336 2.8672-2.8672 5.5296-2.7136 5.376-2.7136 5.2224-2.6624 5.12-2.56 4.9152-1.28 2.4064-2.5088 4.7104-2.4576 4.608-2.4064 4.4544-1.1776 2.2016-2.3552 4.3008-1.1776 2.048-2.2528 4.1472-1.1264 2.048-2.2528 3.9936-2.2016 3.84-1.1264 1.9456-2.1504 3.7376-2.1504 3.6864-2.0992 3.584-1.0752 1.792-2.0992 3.4816-2.048 3.4304-2.0992 3.3792-2.048 3.328-2.048 3.328-2.048 3.2256-2.048 3.2256-2.048 3.2256-2.048 3.1744-2.048 3.1744-2.0992 3.1744-2.048 3.1744-2.1504 3.1232-2.0992 3.1744-4.3008 6.4-3.2768 4.864-2.2016 3.2768-15.36 22.6304-6.4512 9.472-1.024 0.768h0.512l-0.256 0.4096 1.1264-0.512 7.168-0.512 34.6112-2.5088 8.0384-0.512 5.9392-0.4608 5.888-0.3584 3.8912-0.2048 3.84-0.256 3.8912-0.2048 3.7888-0.2048 2.3552-0.1024 5.888-0.256 5.9904-0.2048 4.8128-0.1536 3.6864-0.1024 4.9152-0.1024 5.0688-0.1024 5.12-0.0512h17.5616l5.632 0.0512 4.4032 0.1024h2.9696l4.5568 0.1536 4.608 0.1024 6.4 0.2048 4.9152 0.1536 5.0176 0.2048 5.12 0.2048 5.3248 0.256 5.4272 0.256 7.4752 0.3584 5.7344 0.3072 7.936 0.4608 8.192 0.512 6.3488 0.3584 8.7552 0.5632a240.7424 240.7424 0 0 0-30.0544-25.2928c31.3344-75.8784 86.272-128.256 114.5856-151.6032l2.304-1.8944 2.1504-1.7408 1.024-0.8192 1.9968-1.536 1.792-1.3824 1.6896-1.28 1.4848-1.1264 1.3312-1.024 1.6896-1.1776 1.28-0.9216 1.2288-0.8704-1.28 0.512 1.0752-0.9216-1.792 0.8704-2.2528 1.024-2.2016 0.9216-1.7408 0.7168-1.8944 0.8192-1.024 0.4096-2.2528 0.9216-1.1776 0.512-2.5088 0.9216-5.5296 2.0992-3.072 1.1264c-35.9936 12.9024-106.1376 32.1024-184.1664 21.7088z m133.1712 11.9296l2.56-1.0752c-2.7648 2.048-5.5296 4.1984-8.3456 6.4l-2.4064 1.8944c-3.6352 2.9184-7.3216 5.9904-11.008 9.216l-2.4576 2.0992a369.152 369.152 0 0 0-69.9904 82.688 197.8368 197.8368 0 0 0-25.9072-9.728l-2.048-0.512a180.3264 180.3264 0 0 0-4.9664-1.3824l-1.9456-0.4608-1.8944-0.4608-1.8432-0.4096-1.792-0.3584-1.792-0.3584-1.6896-0.3072-0.8192-0.1536-1.6896-0.3072-1.5872-0.256-1.536-0.2048-1.536-0.2048-1.4336-0.2048-1.4336-0.2048-1.3312-0.1024-0.6656-0.1024 0.256-0.6144 0.5632-1.2288 0.5632-1.3312 0.6144-1.3824 0.5632-1.4336 0.5632-1.536 0.6144-1.536 0.5632-1.5872 0.6144-1.6896 0.3072-0.8192 0.5632-1.7408 0.3072-0.8704 0.512-1.8432 0.3584-0.9216 0.512-1.8944 0.6144-1.9456 0.512-2.048 0.3072-1.024 0.512-2.048 0.512-2.0992c1.28-5.376 2.4576-11.264 3.328-17.5616l0.3584-2.56 0.768-6.5024c20.992-0.6656 40.7552-3.072 59.136-6.656l3.4304-0.6656c10.752-2.2528 21.0944-4.864 30.8736-7.7824l3.072-0.9216c2.048-0.6144 4.096-1.2288 6.0416-1.8944l2.9696-0.9728 4.4032-1.4848 2.8672-1.024 2.816-1.024 2.816-1.024 2.7648-1.024 1.3824-0.512 2.7136-1.024 1.3312-0.5632 2.6624-1.0752 1.28-0.512 2.6112-1.1264zM512.256 552.2432l-0.2048 1.3824v-0.3072l-0.2048-1.0752-0.2048 1.9968-0.1536 1.6896-0.256 2.2528-0.2048 1.7408-0.256 1.9968-0.256 2.1504-0.2048 1.1776-0.3584 2.4576-0.3584 2.6624-0.512 2.816-0.512 3.072-0.512 3.1232-0.6144 3.3792c-7.3216 38.2976-26.0608 106.3424-72.6528 166.912a240.6912 240.6912 0 0 0-36.9664-13.3632l1.9968 2.9696 3.84 5.7856 3.7376 5.632 1.8432 2.816 3.584 5.4272 3.4304 5.2736 3.3792 5.12 3.2256 5.0176 3.1232 4.864 1.536 2.4064 2.9696 4.7104 2.9184 4.608 1.3824 2.2528 2.7648 4.4032 2.6624 4.352 2.56 4.1984 2.56 4.096 2.4064 4.096 2.3552 3.9424 2.304 3.8912 2.2016 3.84 2.1504 3.7376 2.1504 3.6864 2.048 3.6352 1.024 1.792 1.9456 3.584 1.9456 3.5328 1.8944 3.4816 0.9728 1.6896 1.8432 3.4816 0.8704 1.6896 1.8432 3.3792 1.7408 3.4304 1.7408 3.328 1.7408 3.3792 1.7408 3.3792 1.6896 3.3792 2.56 5.0688 2.56 5.12 3.3792 6.912 4.3008 8.8576 12.9024 26.624 3.9936 8.2432 0.2048 1.28 0.2048-0.512 0.2048 0.512 0.1536-1.28 3.072-6.2464 13.8752-28.672 4.3008-8.8064 3.3792-6.912 2.56-5.12 2.56-5.12 1.6896-3.328 1.7408-3.3792 1.7408-3.3792 1.7408-3.328 1.7408-3.4304 0.9216-1.6896 1.792-3.3792 0.9216-1.7408 1.8944-3.4304 0.9216-1.7408 1.8944-3.5328 1.9968-3.5328 2.048-3.584 2.048-3.584 2.048-3.7376 2.2016-3.7376 2.2016-3.84 2.304-3.8912 2.3552-3.9424 2.4576-4.096 2.5088-4.096 2.56-4.1984 2.6624-4.352 1.3824-2.2016 2.7648-4.4544 2.9184-4.608 1.4848-2.3552 3.0208-4.7104 3.1232-4.9152 3.2256-5.0176 3.3792-5.12 3.4304-5.2736 1.792-2.7136 3.584-5.4784 1.8944-2.816 3.7888-5.7344 3.9424-5.888a240.6912 240.6912 0 0 0-36.9664 13.312c-46.592-60.5184-65.3312-128.512-72.6528-166.912l-0.6144-3.328a339.712 339.712 0 0 1-0.512-3.1744l-0.512-3.0208-0.512-2.816-0.4096-2.6624-0.1536-1.2288-0.3584-2.4064-0.256-2.1504-0.256-1.9968-0.2048-1.7408-0.256-2.2528-0.1024-1.1776-0.1024-1.024-0.1536-1.536z m-0.3584 86.7328l0.1536-1.3824 0.1536 1.3824 0.3584 2.7136 0.1536 1.3312 0.4096 2.7648 0.3584 2.7648 0.4608 2.816 0.4096 2.816 0.512 2.8672 0.512 2.8672 0.512 2.9184 0.512 2.9184 0.3072 1.4848 0.6144 2.9184c0.9216 4.5056 1.9456 9.0112 3.072 13.6192l0.768 3.072c6.7072 26.3168 16.9984 54.6304 32.4608 83.456a197.4784 197.4784 0 0 0-21.6576 17.8688l-1.536 1.536a191.8976 191.8976 0 0 0-3.6864 3.6864l-1.3824 1.4336-1.3824 1.4336-1.28 1.3824-1.2288 1.3824-0.6144 0.7168-1.1776 1.3312-0.512 0.6656-1.1264 1.3312-0.512 0.6144-1.024 1.28-1.024 1.2288-0.9216 1.2288-0.8704 1.1776-0.8192 1.1264-0.8192 1.0752-0.8192-1.0752-0.8192-1.1264-0.8704-1.1776-0.9728-1.2288-0.9728-1.2288-1.024-1.28-0.512-0.6144-1.0752-1.3312-0.6144-0.6656-1.1264-1.3312-0.6144-0.7168-1.2288-1.3824-1.28-1.3824-1.3312-1.4336-0.7168-0.7168-1.3824-1.4848a208.384 208.384 0 0 0-2.2528-2.2016l-1.536-1.536a197.7856 197.7856 0 0 0-22.4256-18.6368 368.128 368.128 0 0 0 35.0208-94.1056l0.6144-2.9696 0.3584-1.536 0.6144-2.9696 0.5632-2.9184 0.5632-2.9184 0.512-2.9184 0.512-2.8672 0.256-1.4336 0.4608-2.8672 0.2048-1.3824 0.4608-2.816 0.3584-2.7648 0.2048-1.3824 0.3584-2.7136 0.3584-2.7136z" p-id="2658" fill="#91CEDA"></path></svg>