<?xml version="1.0" standalone="no"?><!DOCTYPE svg PUBLIC "-//W3C//DTD SVG 1.1//EN" "http://www.w3.org/Graphics/SVG/1.1/DTD/svg11.dtd"><svg t="1697041698120" class="icon" viewBox="0 0 1024 1024" version="1.1" xmlns="http://www.w3.org/2000/svg" p-id="2791" xmlns:xlink="http://www.w3.org/1999/xlink" width="200" height="200"><path d="M572.672 434.3808l-0.9728 0.256c0.3072 0.3072 0.5632 0.256 0.9728-0.256z m-118.4256 0.256l-1.024-0.256c0.4096 0.512 0.7168 0.5632 1.024 0.256z m-184.4736 157.184l12.0832-5.632c7.3216-3.072 15.5136-5.0688 24.2688-6.4512 21.504-3.4304 39.424 6.5536 52.992 12.4928 28.672 12.4928 55.1424 28.2624 79.5136 45.4144l23.5008 16.9984 0.3584-0.3584c-25.856-49.408-72.3456-62.1056-92.3648-118.4256-18.5856-47.7184 9.984-97.9456 48.8448-106.7008 13.1072-2.9696 25.2928 2.1504 33.5872 4.4032-0.7168-0.9216-2.2016-5.0176-8.192-13.824-14.336-19.456-34.5088-29.2864-68.9664-28.8256-8.0896 1.536-16.896 2.304-24.2176 4.608-18.2272 5.632-35.0208 16.2304-45.4656 29.8496-12.0832 15.7696-25.1904 45.1584-16.64 73.7792 4.4032 14.848 12.544 28.3648 20.48 38.1952 9.9328 11.264 13.2096 14.336 18.5344 19.3024-30.5664 0-48.3328 14.848-58.368 35.2256z m291.7888 62.464l0.3584 0.3584 23.5008-16.9984a455.8848 455.8848 0 0 1 79.5136-45.4144c13.568-5.9392 31.488-15.872 52.992-12.4928 8.7552 1.3824 16.9472 3.3792 24.2688 6.4512l12.0832 5.632c-9.984-20.3264-27.7504-35.2256-58.3168-35.1744 5.3248-4.9152 8.6016-7.9872 18.5856-19.3024 7.8848-9.8304 16.0256-23.3984 20.4288-38.1952 8.5504-28.672-4.5568-58.0096-16.64-73.7792-10.4448-13.6192-27.2384-24.1664-45.4656-29.9008-7.2704-2.2528-16.128-3.072-24.2176-4.5568-34.4576-0.512-54.6304 9.3184-68.9152 28.7744-6.0416 8.8576-7.5776 12.9536-8.2944 13.8752 8.2944-2.2528 20.48-7.3728 33.6384-4.4032 38.8096 8.7552 67.4304 58.9824 48.8448 106.7008-20.0192 56.32-66.56 69.0176-92.3648 118.4256z m350.208-115.0464c-7.2192-6.0416-13.824-8.192-24.576-10.5984-16.9472-1.4336-26.4704 9.1648-36.352 18.944l-8.704 7.168c9.472 7.168 14.848 17.7664 26.5216 26.88 21.2992 13.1584 55.3472-13.6192 70.0416-21.5552-4.608-4.7616-5.12-2.6624-26.88-20.8384z m-10.1888-247.04c7.5264-20.7872 7.5776-24.1664 9.472-28.416-15.4112 0.4096-36.1984 0.768-54.528 1.536-34.56 2.9184-51.5584 19.0976-57.1904 42.3936-2.56 18.5856-2.56 27.0336-6.8096 43.1104 8.5504 0.768 11.0592 1.024 24.576 3.4304 58.112 14.336 73.216-25.6 84.48-62.0544z m-56.832 188.416c-2.6624-15.872-4.096-31.5904-8.2944-45.4144-10.0864-33.3824-23.1424-59.7504-44.288-81.7152a218.2144 218.2144 0 0 0-90.88-57.4976c-16.4864-3.8912-30.2592-7.168-45.056-8.704-52.224-1.024-94.1056 19.5072-117.4016 46.1312-3.6864 4.2496-8.6016 12.4928-9.0624 16.2816-1.4336 11.0592 13.824 35.1744 21.9136 35.584l12.544-18.176c9.6256-12.8 25.088-22.5792 41.984-28.0064 8.704-2.7648 18.0736-3.7888 27.648-5.632 20.8384-4.096 45.824 0.768 61.3376 5.632 51.3024 13.6704 84.736 58.0096 96.5632 96.1024 7.424 18.944 13.824 50.7392 9.472 77.568-8.704 65.3312-41.6256 117.9136-90.112 152.4736-14.336 10.24-30.2592 18.4832-45.824 27.648-29.5424 17.408-65.2288 26.9824-93.9008 45.056-18.432 11.52-33.7408 28.672-45.824 46.4896-2.1504 3.2256-11.1616 19.0976-13.568 21.6064-2.3552-2.5088-11.3664-18.3808-13.5168-21.6064-12.0832-17.8688-27.4432-34.9696-45.824-46.5408-28.672-18.0224-64.3584-27.648-93.9008-45.056-15.5648-9.1136-31.488-17.3056-45.824-27.5968-48.4864-34.56-81.408-87.1424-90.112-152.4736-4.4032-26.8288 2.048-58.6752 9.472-77.568 11.776-38.0928 45.2608-82.432 96.512-96.1024 15.5648-4.864 40.5504-9.728 61.3888-5.632 9.5744 1.8432 18.944 2.8672 27.648 5.632 16.896 5.4272 32.3584 15.2064 41.984 28.0064l12.4928 18.176c8.192-0.4096 23.3984-24.5248 22.016-35.584-0.512-3.7888-5.4272-12.032-9.1136-16.2816-23.296-26.624-65.1776-47.104-117.4016-46.1312-14.7968 1.536-28.5696 4.8128-45.056 8.704-36.6592 11.6224-67.0208 32.768-90.88 57.4976-21.1456 21.9648-34.2016 48.3328-44.288 81.7152-4.1984 13.824-5.632 29.4912-8.3456 45.4144-4.9664 38.0928 4.1472 80.896 12.1344 106.2912 30.1568 96.1536 89.4976 128.7168 168.448 174.848 25.9584 12.6464 55.296 25.8048 78.848 43.52 22.0672 16.64 37.4272 37.888 51.0976 63.9488 5.9904 10.1376 20.8384 37.1712 21.5552 50.2784l0.6656-0.3072a42.8032 42.8032 0 0 1 0.7168 0.3072c0.7168-13.1072 15.5648-40.1408 21.5552-50.2784 13.6704-26.0096 29.0304-47.3088 51.1488-64 23.552-17.664 52.8384-30.8224 78.7456-43.52 79.0016-46.08 138.3424-78.6432 168.4992-174.7968 7.9872-25.3952 17.1008-68.1984 12.1344-106.2912z m-359.168-182.784c18.1248 15.5648 25.2416 24.4736 26.368 25.9072v0.2048L512 323.8912a3.9424 3.9424 0 0 1 0.1024 0.0512v-0.2048c1.1264-1.4336 8.192-10.3424 26.368-25.856 13.2096-11.3664 27.5456-25.3952 34.4576-42.752 19.2512-48.64-25.7536-98.3552-43.9296-125.6448-10.9056-16.384-15.0016-22.2208-16.5376-24.1152v-0.512c-0.256 0.2048 0.3072-0.8704-0.4608-0.0512-0.7168-0.8192-0.2048 0.256-0.4096 0.1024v0.4608c-1.536 1.8944-5.632 7.7824-16.5376 24.1152-18.176 27.2896-63.1808 77.0048-43.9296 125.6448 6.912 17.408 21.248 31.3856 34.4576 42.752zM206.8992 354.304a220.672 220.672 0 0 1 24.576-3.4304c-4.1984-16.0768-4.2496-24.576-6.7584-43.1104-5.632-23.296-22.6304-39.4752-57.1904-42.3936-18.3296-0.768-39.1168-1.1264-54.528-1.536 1.8944 4.2496 1.9456 7.6288 9.472 28.416 11.264 36.4544 26.368 76.4416 84.4288 62.0544z m-70.0416 174.4384c-10.752 2.4064-17.408 4.5056-24.576 10.5472-21.76 18.176-22.3744 16.0768-26.9312 20.8384 14.6944 7.936 48.7424 34.7136 70.0416 21.5552 11.6224-9.1136 17.0496-19.712 26.5216-26.88l-8.704-7.168c-9.8816-9.7792-19.456-20.3776-36.352-18.944z" p-id="2792" fill="#A5C83B"></path></svg>