<?xml version="1.0" standalone="no"?><!DOCTYPE svg PUBLIC "-//W3C//DTD SVG 1.1//EN" "http://www.w3.org/Graphics/SVG/1.1/DTD/svg11.dtd"><svg t="1697041700709" class="icon" viewBox="0 0 1024 1024" version="1.1" xmlns="http://www.w3.org/2000/svg" p-id="2925" xmlns:xlink="http://www.w3.org/1999/xlink" width="200" height="200"><path d="M915.2512 375.6032c-51.8656-133.5808-142.08-225.9456-283.2896-269.9264-38.0928-11.8272-81.7664-17.408-131.7376-16.5888l-37.4272 2.7648c-24.064 4.3008-46.9504 7.168-68.4032 13.824C305.152 133.4784 230.4 181.5552 179.456 247.808c-21.2992 27.6992-75.8784 87.3984-27.7504 125.4912 16.7936 13.312 47.5136 21.1456 70.2976 7.3728 13.1072-7.936 21.1456-22.3744 30.464-34.1504a293.888 293.888 0 0 1 49.92-48.896c39.1168-30.0032 81.5616-51.5072 137.728-65.536 80.6912-20.0704 180.736 0.8704 233.8816 31.8464 78.2848 45.6704 139.008 107.7248 168.704 201.6256 5.8368 18.432 9.1648 38.0416 12.9536 58.624 5.0176 39.7824 1.8944 89.6-6.5024 123.1872-23.296 93.184-72.9088 160.6144-142.848 207.1552-25.088 16.7936-54.1696 33.1264-87.7568 42.9568l21.7088-9.216 38.8096-22.1696c57.7024-40.448 99.1744-94.464 121.5488-170.2912 15.4112-60.2112 10.1888-123.5456-5.5296-168.8576-32.1536-89.5488-99.1744-159.0784-193.1776-188.2624-46.1312-17.408-115.6096-18.176-165.0176-3.6864-21.8624 6.4-45.4144 13.0048-57.7536 29.0816-22.784 29.696-10.8032 68.8128 15.7184 85.3504 24.3712 15.2576 46.6944 3.9936 71.168-1.8432 18.944-4.5568 46.2336-7.168 68.4032-3.6864 115.8144 12.5952 193.4848 97.6896 206.592 203.9296 5.4272 54.1696-11.3664 107.1104-29.5936 137.984-29.2864 49.6128-71.9872 87.04-132.1984 105.6256-27.648 8.6016-66.56 11.1616-101.1712 7.424-33.6384-2.3552-65.8944-6.8608-95.744-15.7184-44.2368-13.1072-81.7664-30.8224-118.7328-50.7392l-0.4608 0.9216c26.624 31.8976 59.136 61.0304 100.7616 78.8992 25.2928 10.0352 52.9408 15.5648 82.2784 21.7088 49.4592 7.6288 113.2544 6.0416 156.16-4.608 99.84-20.8384 180.4288-76.8 240.8448-147.2 31.232-39.9872 58.7264-84.9408 75.776-138.9056 7.168-22.528 11.4176-46.2336 16.1792-71.5264 9.5744-73.3184-1.28-148.2752-19.8656-196.096z m-475.136 308.224c8.448-6.7072 16.7936-13.6704 27.7504-17.9712l15.7184-3.6864c9.0624-1.5872 19.2512 0.3072 26.3168 2.304 38.656 10.752 30.1056 44.7488 50.3808 71.0656a51.2 51.2 0 0 0 73.0624 8.704c26.3168-27.5456 27.4944-56.832 12.4416-92.672-12.9024-37.7344-51.2512-67.584-91.4944-79.36-13.056-3.4304-26.2656-4.096-41.5744-5.5808l-27.2896 2.304c-17.3568 3.84-33.6384 8.704-47.104 16.64-47.4112 27.6992-95.8464 86.8864-73.0624 174.3872 4.8128 15.6672 11.3664 30.6688 19.8656 42.9056 20.7872 29.8496 49.2544 51.0976 88.2688 62.7712 107.264 25.3952 164.5568-60.3136 170.5472-73.8304-10.9056 7.68-15.36 12.5952-24.4736 21.7088-19.0976 14.592-39.5776 27.3408-66.56 34.0992-65.8944 13.6704-116.5312-23.2448-133.5808-63.6416-8.6016-18.688-10.9568-49.4592-2.304-70.144 4.9152-11.776 13.7216-22.528 23.0912-30.0032z m-221.3888-16.5888c-15.616 1.6896-29.2864 11.776-34.6624 30.9248-7.3728 26.4704 17.5104 53.4016 44.8512 50.2784 52.992-9.4208 43.8272-85.8112-10.1888-81.2032z m-17.5616-124.16c18.176-44.0832-22.528-86.6304-60.0576-80.2816l-14.848 3.6864c-16.6912 6.7584-29.696 21.1968-35.072 39.2192-11.008 36.7616 21.1968 75.9296 60.5184 72.9088 24.2176-3.7888 40.0896-15.9744 49.4592-35.5328z" p-id="2926" fill="#71B7E3"></path></svg>