<?xml version="1.0" standalone="no"?><!DOCTYPE svg PUBLIC "-//W3C//DTD SVG 1.1//EN" "http://www.w3.org/Graphics/SVG/1.1/DTD/svg11.dtd"><svg t="1697041705435" class="icon" viewBox="0 0 1024 1024" version="1.1" xmlns="http://www.w3.org/2000/svg" p-id="3193" xmlns:xlink="http://www.w3.org/1999/xlink" width="200" height="200"><path d="M909.4144 399.36c9.728 15.7184 19.0976 35.6864 29.2864 50.432a429.9264 429.9264 0 0 0-43.9296-137.0624c-10.0352-17.2032-18.8928-32.512-30.1568-48.2304-52.5824-71.4752-133.888-133.632-222.6176-160.6144a414.208 414.208 0 0 0-83.5584-15.872c-23.3472-1.536-43.776-3.0208-44.3392-2.6112 14.1824 6.144 14.2848 5.7344 20.8896 9.0624l40.4992 21.0944c58.88 35.2256 112.9984 76.8 141.312 142.592 10.752 24.8832 16.5888 60.416 11.3152 98.9184-4.5056 20.1728-9.728 35.2256-17.3056 49.664-11.8784 22.4768-28.2624 42.496-48.2816 56.832a146.7904 146.7904 0 0 1-46.5408 22.4256c-82.0224 22.7328-149.7088-28.7744-164.5568-75.776-12.8-32.6656-3.8912-72.6528 19.3536-90.4704 9.5744-7.424 20.5824-11.3664 34.048-15.104 7.936-2.2016 19.712-4.4032 28.4672-3.0208-8.96-8.4992-20.8896-15.616-30.208-21.9648a213.504 213.504 0 0 0-165.376-27.136c-49.9712 13.312-82.432 33.4336-115.6096 61.0816-12.032 10.8032-23.1936 18.6368-33.0752 30.72-4.096 4.1984-9.0624 8.448-11.264 10.496v0.9728c-1.536 0.7168-1.2288 0.256 0-0.9728 2.56-54.6816 26.624-99.4304 48.3328-136.2944 8.704-14.848 16.2304-28.7232 26.2656-44.3904a358.0416 358.0416 0 0 0-64.7168 60.672c-50.3296 62.5664-78.1312 112.128-96.0512 208.384-5.12 29.1328-8.704 71.68-4.2496 107.008 2.2528 18.7904 3.4304 34.048 7.3216 49.92 16.5376 72.192 35.5328 99.6352 46.8992 122.4704a348.16 348.16 0 0 1-3.4304-45.2096c0.1536-8.7552-0.1536-20.992 0-29.696 0.1536-6.7584 1.536-14.7968 1.7408-21.504 1.024-14.9504 1.9968-25.1392 3.4304-37.4784 4.4544-28.5696 11.9296-57.1904 21.9136-79.6672 18.1248-40.9088 42.9568-73.6256 87.4496-96.4096 42.5984-23.7056 111.8208-24.9344 154.7776 0.1536 31.5904 18.432 56.8832 48.2816 69.1712 80.7424 18.176 51.712 0.1024 112.384-34.2528 138.9056-42.0352 26.368-78.4384 22.3744-103.5776-6.7072-12.288-13.056-11.9808-13.2096-16.64-24.2688h-0.4096c-7.5264 36.096-4.9664 79.9232 6.2976 112.128 25.4976 70.2464 79.4624 115.2512 146.2272 142.4384 18.5344 7.5264 47.7696 18.7904 72.8064 23.2448v0.4096l-19.4048 8.192c-23.296 9.216-47.7184 14.1824-77.9776 17.664l-39.6288 1.28c-18.688 0.9216-38.144 0.3072-55.7568 0 8.2944 4.5056 29.696 11.4176 37.2224 13.824a396.288 396.288 0 0 0 121.4976 18.0736l37.0688-1.28c27.0336-4.5568 53.8624-8.0384 77.6704-15.104 112.7424-33.28 198.2464-100.7616 254.1056-196.3008-22.8352 13.7216-62.6176 51.2-163.7376 80.896-124.2624 30.6176-220.672-39.1168-235.52-141.1584-4.1984-24.2688 1.6384-52.8384 8.192-69.7344 18.688-47.9232 52.8384-79.6672 108.8-90.2144 50.176-9.4208 92.8256 23.4496 102.2464 57.9072 5.2736 27.7504-6.0928 52.224-14.336 70.0416 5.2224-2.2016 9.0624-3.3792 13.3632-5.1712 18.6368-7.9872 34.9696-17.1008 50.432-28.0064 40.704-28.8768 64.1024-68.2496 79.3088-122.9824 3.2768-16.2304 7.168-42.1888 6.912-70.144-0.768-10.752-1.8944-21.504-2.6112-32.3072l-7.3216-40.9088-9.8816-36.1472c11.6224 8.192 48.0256 28.5184 91.648 101.3248" p-id="3194" fill="#A48AE3"></path></svg>