<?xml version="1.0" standalone="no"?><!DOCTYPE svg PUBLIC "-//W3C//DTD SVG 1.1//EN" "http://www.w3.org/Graphics/SVG/1.1/DTD/svg11.dtd"><svg t="1697041692950" class="icon" viewBox="0 0 1024 1024" version="1.1" xmlns="http://www.w3.org/2000/svg" p-id="2521" xmlns:xlink="http://www.w3.org/1999/xlink" width="200" height="200"><path d="M512 85.3504S325.12 224.8704 240.2304 352.1536c8.5504 58.7264 40.96 132.352 66.048 173.2608 30.208-39.6288 157.0816-154.8288 204.032-172.3904 75.2128 62.3616 87.3984 117.8112 87.3984 117.8112S524.288 545.1776 501.76 565.2992c18.0224 28.5696 32.5632 39.8336 32.5632 39.8336s110.848-81.8688 142.336-124.7232c-66.2016-134.5024-166.2976-222.6688-166.2976-222.6688s-166.3488 142.336-179.2 152.064c20.3776-89.0368 84.2752-176.7936 180.0192-284.6208 30.208 39.6288 230.4 254.976 309.504 502.4768 40.2944-45.2608 60.2112-70.8096 85.7088-116.0704-92.5696-174.7968-297.8816-354.304-394.3424-426.24z m1.7408 585.6256c-75.264-62.3616-87.4496-117.8112-87.4496-117.8112S499.8144 478.8736 522.24 458.752c-17.9712-28.6208-32.5632-39.8848-32.5632-39.8848s-110.7968 81.92-142.336 124.7744c66.2016 134.4512 166.3488 222.6176 166.3488 222.6176s166.2976-142.2848 179.2-152.064c-20.3776 89.088-84.2752 176.7936-180.0704 284.672-30.208-39.68-230.4-254.976-309.504-502.528-40.2944 45.2608-60.2112 70.8608-85.7088 116.1216 92.5696 174.7968 297.8816 354.304 394.3424 426.24 0 0 186.88-139.52 271.7696-266.8544-8.5504-58.6752-40.96-132.352-66.048-173.2608-30.208 39.6288-157.0816 154.88-203.9808 172.3904z" p-id="2522" fill="#FAB632"></path></svg>