<?xml version="1.0" standalone="no"?><!DOCTYPE svg PUBLIC "-//W3C//DTD SVG 1.1//EN" "http://www.w3.org/Graphics/SVG/1.1/DTD/svg11.dtd"><svg t="1697041702994" class="icon" viewBox="0 0 1024 1024" version="1.1" xmlns="http://www.w3.org/2000/svg" p-id="3059" xmlns:xlink="http://www.w3.org/1999/xlink" width="200" height="200"><path d="M548.864 724.992v0.4608c7.9872 1.28 30.5152-11.5712 37.0176-15.36 30.3104-17.92 65.3312-44.8512 49.2544-97.2288-16.0256-52.3264-59.0848-83.6608-128.9216-82.6368l-11.8784 1.3312-23.7568 6.144c-32.3584 12.6976-48.7936 35.4816-63.3856 65.9456v1.3312c52.1216-28.5184 115.4048-19.0976 146.1248 23.7568 20.3264 28.3648 21.76 72.0384-4.4032 96.256z m285.184-178.0736c-13.568-21.76-33.6384-49.2544-53.248-65.024-46.7968-37.7344-81.1008-66.9696-103.424-130.1504-4.1984-12.032-9.3696-26.112-10.5472-40.448-7.3728 2.4576-18.944 23.6032-23.296 30.7712a151.4496 151.4496 0 0 0-16.2816 34.7648c-9.6256 31.5904 0.6656 65.1264 14.4896 84.8384 11.8784 16.7936 28.8768 32.6144 30.8224 58.88-39.2192-35.3792-100.9664-102.912-85.3504-186.8288 4.1984-22.8352 10.24-42.8544 15.36-62.8736v-0.4096l-0.8704-0.4608-25.9584 17.152c-27.648 20.224-81.3056 72.0384-64.7168 127.0272 4.096 13.4656 11.6224 23.296 19.4048 32.9728l9.216 9.216a113.664 113.664 0 0 1-32.1024-26.3168 90.8288 90.8288 0 0 1-15.872-25.9584c-8.4992-21.6064-2.2016-47.7184 6.144-64.2048 10.4448-20.3776 25.1392-40.2944 42.2912-54.0672 15.0528-12.0832 33.3824-26.88 39.5776-47.4624 11.1104-36.6592-25.0368-86.3744-39.168-106.3936-5.7856-8.2432-29.696-44.032-36.9664-46.592-4.7616 75.264-43.008 116.7872-77.4144 162.2016-24.32 32.1024-50.8416 72.2944-28.672 126.1568 42.2912 102.7072 195.0208 95.5904 259.6864 175.872 5.9904 7.4752 13.2608 14.08 18.4832 22.4256 15.8208 25.1904 28.7744 71.168 16.7424 110.336-16.9984 55.296-66.4064 83.2-125.8496 96.256-45.7728 10.0864-100.864-1.3824-121.0368-27.2384-26.5216-33.9968-14.5408-81.0496 13.6192-103.3216 4.8128-3.7888 9.5744-9.216 15.872-11.4176l0.4096-0.8704c-6.912-3.4816-15.9744-2.9696-25.088-4.4032-50.8416-7.9872-92.7744 37.2224-77.0048 86.6304 14.0288 43.8272 70.656 68.6592 119.296 79.104 34.6624 7.4752 79.2576 3.4304 109.568-4.8128 76.544-20.8896 155.392-70.4 171.6224-150.3744 7.5776-37.376-3.2256-78.848-13.6704-105.984l-10.9568-26.3168c39.8336 21.0432 101.3248 74.8544 78.336 142.4384a130.048 130.048 0 0 1-16.2816 32.9728c-20.1216 28.2624-50.4832 44.032-80.9984 61.952-40.448 23.8592-84.1216 44.3392-123.648 69.0176l-90.6752 59.8016c-25.3952-17.6128-50.4832-36.1984-77.4656-52.3264l-76.1344-40.448c-51.5072-29.952-111.7184-50.3808-142.592-100.6592a116.8384 116.8384 0 0 1-12.7488-31.6416c-16.384-64.2048 21.504-110.1312 55.04-135.424 8.6016-6.4512 19.456-16.896 30.7712-19.7632l-15.36 19.3536c-12.7488 17.92-23.7056 38.2976-29.5424 62.8736-17.3056 73.216 38.1952 125.2864 77.056 151.1936 11.6224 7.7824 30.464 22.0672 45.312 25.088l-17.6128-20.6848a144.1792 144.1792 0 0 1-25.9584-54.0672c-7.68-32.6656 2.2016-67.4816 11.8784-89.7024 25.9584-59.392 91.648-104.7552 178.2272-103.2704l0.4608-0.4608V485.376C444.416 457.3184 345.856 418.6112 347.3408 318.7712l-0.4608-0.4096h-0.4096c-47.2576 113.664-159.6928 177.1008-184.4224 310.784-7.7824 42.1888 16.0256 78.592 36.9664 95.3856 36.352 29.184 77.6704 52.1216 119.296 76.4928 29.3376 17.2544 59.8016 31.7952 87.1424 51.0464 27.5456 19.4048 54.272 39.5264 80.9472 59.7504l32.5632 26.8288c2.2528 1.024 24.2688-21.5552 28.6208-25.088 30.8224-24.7296 60.928-49.3568 95.9488-70.2976 39.1168-23.3984 81.3568-42.9056 118.3744-68.608 24.5248-16.9984 50.688-35.7376 69.12-58.88 11.7248-14.7968 22.4768-30.5664 28.5696-50.9952 13.0048-43.4688-9.1136-91.5968-25.4976-117.8624z" p-id="3060" fill="#F48D78"></path></svg>