<?xml version="1.0" standalone="no"?><!DOCTYPE svg PUBLIC "-//W3C//DTD SVG 1.1//EN" "http://www.w3.org/Graphics/SVG/1.1/DTD/svg11.dtd"><svg t="1697041686085" class="icon" viewBox="0 0 1024 1024" version="1.1" xmlns="http://www.w3.org/2000/svg" p-id="2387" xmlns:xlink="http://www.w3.org/1999/xlink" width="200" height="200"><path d="M410.624 569.1392c25.856 6.7584 45.4144 38.912 27.7504 68.5568-9.5744 13.2096-36.1472 21.504-60.2624 21.3504-9.6256 26.7264 24.832 40.2944 49.5616 33.8944 32.0512-8.2432 51.5584-53.9648 37.376-90.9824-14.7968-36.096-51.2-57.6512-96.9216-67.4304-15.4112-3.7888-44.1344-2.048-52.1216-1.8944-6.4 0.512-10.752 0.256-17.408 0.4096-7.936-0.8704-45.312-8.8576-63.8976-17.7152-32.6144-16.7424-65.1776-48.0256-85.4528-74.4448l-25.856-36.864c-2.9184-4.096-5.1712-9.984-9.216-12.8512a237.8752 237.8752 0 0 0-9.2672 34.2528 152.32 152.32 0 0 0-0.7168 50.1248c6.9632 58.112 32.7168 103.5776 79.872 127.488 16.5888 8.448 42.7008 16.128 70.9632 13.312 37.632-6.9632 66.048-19.712 97.5872-32.4608 13.5168-6.4512 35.6864-20.5824 58.0608-14.7456z m164.5568 179.456c-2.56 1.6384-28.0064 9.1648-49.152-4.7616-5.8368-3.8912-5.5296-2.7648-14.0288-11.776-6.3488 5.888-4.4032 4.864-13.7216 11.3664-11.2128 8.3968-31.8976 10.1376-48.0256 5.5296h-0.768v-0.7168c28.16-6.2976 55.296-27.8528 62.464-54.528 7.8848 26.112 32.5632 46.7968 63.232 54.528v0.3584z m-54.7328 78.1312l-8.1408 15.872c-3.6864-7.168-9.984-18.688-13.6704-25.8048a1069.056 1069.056 0 0 0-21.4528-33.536c16.384-7.5264 20.2752-9.984 34.4064-22.8864 11.776 9.0112 19.2512 16.896 35.4816 22.528l0.3584 0.7168c-10.7008 11.9808-19.1488 28.672-26.9824 43.1104z m102.8096-116.8384l-17.7664 11.4176c-5.9392 1.792-29.0304-7.68-33.28-9.9328a101.5296 101.5296 0 0 1-35.84-31.6928 76.3904 76.3904 0 0 1-9.216-20.2752c-15.872-54.0672 33.4848-105.2672 68.7104-121.9584 24.7296-14.6432 52.736-19.1488 83.5584-25.8048l48.8448-8.0896c40.6016-10.5984 73.728-26.88 100.5568-54.5792 11.4176-14.08 21.9648-29.7984 28.1088-50.0736 13.0048-43.1616-1.1264-100.4544-14.848-135.6288-5.632-12.288-10.9568-23.0912-17.7152-36.864-1.1776 9.984-2.4064 12.032-2.9696 19.5584l-8.8576 43.4688a277.1456 277.1456 0 0 1-41.4208 88.4224c-11.776 16.6912-25.3952 34.304-41.0112 48.64-18.5856 17.0496-41.5744 30.1568-64.3584 42.3936-29.9008 16.0768-61.2864 29.696-88.7296 47.9232-21.7088 14.3872-62.464 48.2304-64.7168 79.9744H512c-1.3312-5.5296-1.28-7.5264-4.4032-15.872-3.1744-8.2944-12.1344-20.5824-18.8928-29.1328-29.184-32.4096-70.144-53.248-112.7424-74.0352-30.1568-15.872-58.368-33.0752-83.968-53.4528a160.6144 160.6144 0 0 1-24.0128-26.112c-23.7056-30.8224-42.5984-62.976-55.0912-105.7792a410.88 410.88 0 0 1-9.216-44.5952c-1.3824-8.448-1.8944-14.4384-2.9696-22.528-2.9696 3.9424-3.84 6.2976-10.752 19.5584a283.4432 283.4432 0 0 0-21.4016 59.3408c-3.072 13.568-4.1984 26.7264-6.656 41.2672-4.096 37.0176 12.544 74.3424 25.856 92.5184 21.1968 28.7744 49.4592 47.0016 86.8864 59.6992 32.1536 10.8544 72.3456 11.1616 105.7792 21.3504 34.5088 7.9872 57.4976 22.016 79.872 39.7824 21.76 17.408 50.2784 61.696 36.5568 103.2192-7.68 23.1424-26.0096 40.192-47.3088 50.8416a157.9008 157.9008 0 0 1-30.3104 8.448c-8.4992-5.5296-14.4384-10.496-25.4976-13.9776-10.752-2.3552-23.04 3.328-28.16 4.4032 5.4784 5.888 18.5344 19.3024 53.6576 53.4528 27.648 30.8736 43.4176 57.9584 63.5904 93.5936 7.6288 13.4656 14.5408 27.392 21.8112 41.6256 2.2016 4.3008 6.4 10.5472 7.7312 14.3872 1.9968-3.7376 5.9904-12.032 8.192-16.2304l22.8864-43.4688c17.5616-32.1536 38.0928-63.8976 62.1056-89.9072l39.936-39.424 13.312-13.6704v-0.3584c-10.24-3.2768-24.7296-7.2192-35.4816-1.8432z m-204.0832-238.08c17.6128 6.2464 44.544 14.592 56.576 17.7152-9.6256-13.9776-84.5824-48.4864-118.6816-174.2848-9.6768-33.792-19.0976-80.128-8.8576-122.368a203.776 203.776 0 0 1 17.7152-58.5728c4.4544-8.3456 7.7824-15.9744 13.312-25.088-2.4576 0-8.1408 3.328-30.72 13.312-31.744 19.0464-58.368 40.1408-77.2096 72.192-7.936 13.5168-12.8512 29.9008-17.7664 46.08-9.5232 40.0384-1.536 88.3712 11.8272 114.9952 31.232 62.208 84.5824 91.5968 153.8048 116.0704z m500.5824-43.0592c-1.6896-9.0112-5.632-30.5152-9.984-37.5808l-22.528 32.0512c-30.5152 42.9056-65.4336 83.2-120.9344 100.9664-12.5952 4.0448-26.624 6.3488-40.2944 8.8576l-17.408-0.4096a173.3632 173.3632 0 0 0-47.3088 1.1264c-32.0512 6.0416-56.3712 16.4352-77.2608 33.1776-35.84 33.1264-42.2912 92.416 1.1264 121.6 26.112 13.0048 66.9696 4.608 61.7472-29.1328l-17.408-1.8432c-16.0768-2.9184-32.6656-6.3488-41.0112-16.896-21.3504-28.928-5.12-66.56 30.3104-72.2432 17.7664-3.072 33.792 5.632 44.3392 11.0592l49.5616 21.3504a329.728 329.728 0 0 0 54.3744 14.7456c9.9328 1.6896 21.248 1.3824 31.744 0 47.616-7.9872 71.0656-27.7504 94.72-61.184 18.8928-31.1296 33.4336-74.1376 26.2144-125.6448z m-305.7152 40.1408c68.352-22.1184 129.024-66.2528 152.6784-128.9728 3.84-11.3664 5.12-20.48 7.3728-33.8944a281.6 281.6 0 0 0 0.768-36.5056l-2.2528-22.0672c-11.6736-52.224-37.8368-86.1696-76.1344-111.6672-10.8544-7.2192-36.4544-21.9136-51.0464-26.5216l14.848 28.3648c7.2192 16.896 12.0832 34.8672 16.2304 55.296 8.0896 39.6288 1.4848 88.2688-7.7824 121.1904a316.2112 316.2112 0 0 1-120.5248 174.6944c10.8544-1.5872 12.9536-2.56 22.528-5.888 14.7968-4.9664 29.184-9.472 43.264-14.0288z" p-id="2388" fill="#76CCC2"></path></svg>