<?xml version="1.0" standalone="no"?><!DOCTYPE svg PUBLIC "-//W3C//DTD SVG 1.1//EN" "http://www.w3.org/Graphics/SVG/1.1/DTD/svg11.dtd"><svg t="1697226565283" class="icon" viewBox="0 0 1024 1024" version="1.1" xmlns="http://www.w3.org/2000/svg" p-id="15671" xmlns:xlink="http://www.w3.org/1999/xlink" width="200" height="200"><path d="M440 634c-4 0-7.8 0-11.8-0.2-4-0.2-7.8-0.4-11.8-0.8s-7.8-0.8-11.8-1.4c-3.8-0.6-7.8-1.2-11.6-2s-7.6-1.6-11.6-2.6c-3.8-1-7.6-2-11.4-3.2-3.8-1.2-7.6-2.4-11.2-3.8-3.8-1.4-7.4-2.8-11-4.2l-10.8-4.8c-3.6-1.6-7-3.4-10.6-5.4-3.4-1.8-6.8-3.8-10.2-5.8-3.4-2-6.6-4.2-10-6.4-3.2-2.2-6.4-4.4-9.6-6.8-3.2-2.4-6.2-4.8-9.4-7.2-3-2.4-6-5-9-7.8-3-2.6-5.8-5.4-8.6-8.2-2.8-2.8-5.4-5.6-8.2-8.6-2.6-3-5.2-5.8-7.8-9-2.4-3-5-6.2-7.2-9.4-2.4-3.2-4.6-6.4-6.8-9.6-2.2-3.2-4.2-6.6-6.4-10-2-3.4-4-6.8-5.8-10.2-1.8-3.4-3.6-7-5.4-10.6l-4.8-10.8c-1.6-3.6-3-7.4-4.2-11-1.4-3.8-2.6-7.4-3.8-11.2s-2.2-7.6-3.2-11.4c-1-3.8-1.8-7.6-2.6-11.6s-1.4-7.8-2-11.6c-0.6-3.8-1-7.8-1.4-11.8s-0.6-7.8-0.8-11.8c-0.2-4-0.2-7.8-0.2-11.8 0-4 0-7.8 0.2-11.8 0.2-4 0.4-7.8 0.8-11.8 0.4-4 0.8-7.8 1.4-11.8 0.6-3.8 1.2-7.8 2-11.6s1.6-7.6 2.6-11.6c1-3.8 2-7.6 3.2-11.4s2.4-7.6 3.8-11.2 2.8-7.4 4.2-11l4.8-10.8c1.6-3.6 3.4-7 5.4-10.6 1.8-3.4 3.8-6.8 5.8-10.2 2-3.4 4.2-6.6 6.4-10 2.2-3.2 4.4-6.4 6.8-9.6 2.4-3.2 4.8-6.2 7.2-9.4 2.4-3 5-6 7.8-9 2.6-3 5.4-5.8 8.2-8.6 2.8-2.8 5.6-5.4 8.6-8.2 3-2.6 5.8-5.2 9-7.8 3-2.4 6.2-5 9.4-7.2 3.2-2.4 6.4-4.6 9.6-6.8s6.6-4.2 10-6.4c3.4-2 6.8-4 10.2-5.8 3.4-1.8 7-3.6 10.6-5.4s7.2-3.2 10.8-4.8c3.6-1.6 7.4-3 11-4.2 3.8-1.4 7.4-2.6 11.2-3.8 3.8-1.2 7.6-2.2 11.4-3.2 3.8-1 7.6-1.8 11.6-2.6 3.8-0.8 7.8-1.4 11.6-2s7.8-1 11.8-1.4c4-0.4 7.8-0.6 11.8-0.8 4-0.2 7.8-0.2 11.8-0.2 4 0 7.8 0 11.8 0.2 4 0.2 7.8 0.4 11.8 0.8 4 0.4 7.8 0.8 11.8 1.4 3.8 0.6 7.8 1.2 11.6 2s7.6 1.6 11.6 2.6c3.8 1 7.6 2 11.4 3.2 3.8 1.2 7.6 2.4 11.2 3.8 3.8 1.4 7.4 2.8 11 4.2l10.8 4.8c3.6 1.6 7 3.4 10.6 5.4 3.4 1.8 6.8 3.8 10.2 5.8 3.4 2 6.6 4.2 10 6.4s6.4 4.4 9.6 6.8c3.2 2.4 6.2 4.8 9.4 7.2 3 2.4 6 5 9 7.8 3 2.6 5.8 5.4 8.6 8.2 2.8 2.8 5.4 5.6 8.2 8.6 2.6 3 5.2 5.8 7.8 9 2.4 3 5 6.2 7.2 9.4 2.4 3.2 4.6 6.4 6.8 9.6 2.2 3.2 4.2 6.6 6.4 10 2 3.4 4 6.8 5.8 10.2 1.8 3.4 3.6 7 5.4 10.6l4.8 10.8c1.6 3.6 3 7.4 4.2 11 1.4 3.8 2.6 7.4 3.8 11.2 1.2 3.8 2.2 7.6 3.2 11.4s1.8 7.6 2.6 11.6 1.4 7.8 2 11.6c0.6 3.8 1 7.8 1.4 11.8 0.4 4 0.6 7.8 0.8 11.8 0.2 4 0.2 7.8 0.2 11.8 0 4-0.2 7.8-0.4 11.8-0.2 4-0.4 7.8-0.8 11.8s-0.8 7.8-1.4 11.8c-0.6 3.8-1.2 7.8-2 11.6s-1.6 7.6-2.6 11.6c-1 3.8-2 7.6-3.2 11.4-1.2 3.8-2.4 7.4-3.8 11.2-1.4 3.8-2.8 7.4-4.2 11l-4.8 10.8c-1.6 3.6-3.4 7-5.4 10.6-1.8 3.4-3.8 6.8-5.8 10.2-2 3.4-4.2 6.6-6.4 10s-4.4 6.4-6.8 9.6c-2.4 3.2-4.8 6.2-7.2 9.4-2.4 3-5 6-7.8 9-2.6 3-5.4 5.8-8.2 8.6-2.8 2.8-5.6 5.4-8.6 8.2-3 2.6-5.8 5.2-9 7.8s-6.2 5-9.4 7.2c-3.2 2.4-6.4 4.6-9.6 6.8-3.2 2.2-6.6 4.2-10 6.4-3.4 2-6.8 4-10.2 5.8-3.4 1.8-7 3.6-10.6 5.4l-10.8 4.8c-3.6 1.6-7.4 3-11 4.2-3.8 1.4-7.4 2.6-11.2 3.8-3.8 1.2-7.6 2.2-11.4 3.2-3.8 1-7.6 1.8-11.6 2.6-3.8 0.8-7.8 1.4-11.6 2-3.8 0.6-7.8 1-11.8 1.4s-7.8 0.6-11.8 0.8c-3.8 0.2-7.8 0.2-11.6 0.2zM883 5.6h-156c-1.6 0-3 0-4.6 0.2-1.6 0.2-3 0.4-4.6 0.6s-3 0.6-4.4 1.2c-1.4 0.4-2.8 1-4.2 1.6s-2.8 1.2-4.2 2-2.6 1.4-4 2.4c-1.2 0.8-2.4 1.8-3.6 2.8-1.2 1-2.2 2-3.4 3-1 1-2 2.2-3 3.4-1 1.2-1.8 2.4-2.8 3.6-0.8 1.2-1.6 2.6-2.4 4-0.8 1.4-1.4 2.8-2 4.2s-1 2.8-1.6 4.2c-0.4 1.4-0.8 3-1.2 4.4-0.2 1.4-0.6 3-0.6 4.6-0.2 1.6-0.2 3-0.2 4.6 0 1.6 0 3 0.2 4.6 0.2 1.6 0.4 3 0.6 4.6 0.2 1.4 0.6 3 1.2 4.4 0.4 1.4 1 2.8 1.6 4.2s1.2 2.8 2 4.2c0.8 1.4 1.4 2.6 2.4 4 0.8 1.2 1.8 2.4 2.8 3.6 1 1.2 2 2.2 3 3.4 1 1 2.2 2 3.4 3 1.2 1 2.4 1.8 3.6 2.8 1.2 0.8 2.6 1.6 4 2.4s2.8 1.4 4.2 2c1.4 0.6 2.8 1 4.2 1.6 1.4 0.4 3 0.8 4.4 1.2s3 0.6 4.6 0.6c1.6 0.2 3 0.2 4.6 0.2h44l-78.2 78.2c-7.8-9-16-17.8-24.8-26s-17.8-16-27.4-23.2-19.4-13.8-29.8-20c-10.2-6.2-20.8-11.8-31.8-16.8-10.8-5-22-9.4-33.4-13.2-11.4-3.8-22.8-7-34.6-9.6-11.6-2.6-23.4-4.4-35.4-5.8-11.8-1.2-23.8-2-35.8-2C256 60.8 106.6 210.4 106.6 394c0 168 125 307.4 286.8 330v79.2h-59c-1.6 0-3 0-4.6 0.2-1.6 0.2-3 0.4-4.6 0.6s-3 0.6-4.4 1.2c-1.4 0.4-2.8 1-4.2 1.6-1.4 0.6-2.8 1.2-4.2 2-1.4 0.8-2.6 1.4-4 2.4-1.2 0.8-2.4 1.8-3.6 2.8-1.2 1-2.2 2-3.4 3s-2 2.2-3 3.4c-1 1.2-1.8 2.4-2.8 3.6-0.8 1.2-1.6 2.6-2.4 4-0.8 1.4-1.4 2.8-2 4.2-0.6 1.4-1 2.8-1.6 4.2-0.4 1.4-0.8 3-1.2 4.4s-0.6 3-0.6 4.6c-0.2 1.6-0.2 3-0.2 4.6 0 1.6 0 3 0.2 4.6 0.2 1.6 0.4 3 0.6 4.6s0.6 3 1.2 4.4c0.4 1.4 1 2.8 1.6 4.2 0.6 1.4 1.2 2.8 2 4.2 0.8 1.4 1.4 2.6 2.4 4 0.8 1.2 1.8 2.4 2.8 3.6 1 1.2 2 2.2 3 3.4s2.2 2 3.4 3 2.4 1.8 3.6 2.8c1.2 0.8 2.6 1.6 4 2.4 1.4 0.8 2.8 1.4 4.2 2 1.4 0.6 2.8 1 4.2 1.6 1.4 0.4 3 0.8 4.4 1.2 1.4 0.2 3 0.6 4.6 0.6 1.6 0.2 3 0.2 4.6 0.2h59v76c0 1.6 0 3 0.2 4.6 0.2 1.6 0.4 3 0.6 4.6 0.2 1.4 0.6 3 1.2 4.4 0.4 1.4 1 2.8 1.6 4.2 0.6 1.4 1.2 2.8 2 4.2 0.8 1.4 1.4 2.6 2.4 4 0.8 1.2 1.8 2.4 2.8 3.6 1 1.2 2 2.2 3 3.4 1 1 2.2 2 3.4 3 1.2 1 2.4 1.8 3.6 2.8 1.2 0.8 2.6 1.6 4 2.4 1.4 0.8 2.8 1.4 4.2 2 1.4 0.6 2.8 1 4.2 1.6s3 0.8 4.4 1.2 3 0.6 4.6 0.6c1.6 0.2 3 0.2 4.6 0.2 1.6 0 3 0 4.6-0.2 1.6-0.2 3-0.4 4.6-0.6 1.4-0.2 3-0.6 4.4-1.2s2.8-1 4.2-1.6c1.4-0.6 2.8-1.2 4.2-2 1.4-0.8 2.6-1.4 4-2.4 1.2-0.8 2.4-1.8 3.6-2.8 1.2-1 2.2-2 3.4-3 1-1 2-2.2 3-3.4 1-1.2 1.8-2.4 2.8-3.6 0.8-1.2 1.6-2.6 2.4-4 0.8-1.4 1.4-2.8 2-4.2 0.6-1.4 1-2.8 1.6-4.2 0.4-1.4 0.8-3 1.2-4.4 0.2-1.4 0.6-3 0.6-4.6 0.2-1.6 0.2-3 0.2-4.6v-76H546c1.6 0 3 0 4.6-0.2s3-0.4 4.6-0.6c1.4-0.2 3-0.6 4.4-1.2s2.8-1 4.2-1.6c1.4-0.6 2.8-1.2 4.2-2 1.4-0.8 2.6-1.4 4-2.4 1.2-0.8 2.4-1.8 3.6-2.8 1.2-1 2.2-2 3.4-3 1-1 2-2.2 3-3.4 1-1.2 1.8-2.4 2.8-3.6 0.8-1.2 1.6-2.6 2.4-4 0.8-1.4 1.4-2.8 2-4.2 0.6-1.4 1-2.8 1.6-4.2 0.4-1.4 0.8-3 1.2-4.4 0.2-1.4 0.6-3 0.6-4.6 0.2-1.6 0.2-3 0.2-4.6 0-1.6 0-3-0.2-4.6-0.2-1.6-0.4-3-0.6-4.6-0.2-1.4-0.6-3-1.2-4.4-0.4-1.4-1-2.8-1.6-4.2-0.6-1.4-1.2-2.8-2-4.2-0.8-1.4-1.4-2.6-2.4-4-0.8-1.2-1.8-2.4-2.8-3.6-1-1.2-2-2.2-3-3.4-1-1-2.2-2-3.4-3-1.2-1-2.4-1.8-3.6-2.8-1.2-0.8-2.6-1.6-4-2.4-1.4-0.8-2.8-1.4-4.2-2-1.4-0.6-2.8-1-4.2-1.6-1.4-0.4-3-0.8-4.4-1.2-1.4-0.2-3-0.6-4.6-0.6s-3-0.2-4.6-0.2h-59V724c161.8-22.6 286.8-162 286.8-330 0-23.6-2.4-47-7.4-70s-12.4-45.4-22-66.8l92.8-92.8V208c0 1.6 0 3 0.2 4.6s0.4 3 0.6 4.6c0.2 1.4 0.6 3 1.2 4.4 0.4 1.4 1 2.8 1.6 4.2 0.6 1.4 1.2 2.8 2 4.2 0.8 1.4 1.4 2.6 2.4 4 0.8 1.2 1.8 2.4 2.8 3.6 1 1.2 2 2.2 3 3.4 1 1 2.2 2 3.4 3 1.2 1 2.4 1.8 3.6 2.8 1.2 0.8 2.6 1.6 4 2.4 1.4 0.8 2.8 1.4 4.2 2 1.4 0.6 2.8 1 4.2 1.6 1.4 0.4 3 0.8 4.4 1.2 1.4 0.2 3 0.6 4.6 0.6 1.6 0.2 3 0.2 4.6 0.2s3 0 4.6-0.2c1.6-0.2 3-0.4 4.6-0.6s3-0.6 4.4-1.2c1.4-0.4 2.8-1 4.2-1.6 1.4-0.6 2.8-1.2 4.2-2 1.4-0.8 2.6-1.4 4-2.4 1.2-0.8 2.4-1.8 3.6-2.8 1.2-1 2.2-2 3.4-3s2-2.2 3-3.4c1-1.2 1.8-2.4 2.8-3.6 0.8-1.2 1.6-2.6 2.4-4 0.8-1.4 1.4-2.8 2-4.2 0.6-1.4 1-2.8 1.6-4.2 0.4-1.4 0.8-3 1.2-4.4 0.2-1.4 0.6-3 0.6-4.6 0.2-1.6 0.2-3 0.2-4.6V52c0-1.6 0-3-0.2-4.6-0.2-1.6-0.4-3-0.6-4.6-0.2-1.4-0.6-3-1.2-4.4-0.4-1.4-1-2.8-1.6-4.2s-1.2-2.8-2-4.2c-0.8-1.4-1.4-2.6-2.4-4-0.8-1.2-1.8-2.4-2.8-3.6-1-1.2-2-2.2-3-3.4s-2.2-2-3.4-3c-1.2-1-2.4-1.8-3.6-2.8-1.2-0.8-2.6-1.6-4-2.4-1.4-0.8-2.8-1.4-4.2-2-1.4-0.6-2.8-1-4.2-1.6-1.4-0.4-3-0.8-4.4-1.2-1.4-0.2-3-0.6-4.6-0.6-2.6 0.2-4.2 0.2-5.6 0.2z" p-id="15672" fill="#FFD86B"></path></svg>