<?xml version="1.0" standalone="no"?><!DOCTYPE svg PUBLIC "-//W3C//DTD SVG 1.1//EN" "http://www.w3.org/Graphics/SVG/1.1/DTD/svg11.dtd"><svg t="1697226567619" class="icon" viewBox="0 0 1024 1024" version="1.1" xmlns="http://www.w3.org/2000/svg" p-id="15816" xmlns:xlink="http://www.w3.org/1999/xlink" width="200" height="200"><path d="M654 789.8c-3.2 3.2-6.4 6.2-9.8 9.2-3.4 3-6.8 6-10.2 8.8-3.4 2.8-7 5.6-10.6 8.2-3.6 2.6-7.2 5.2-11 7.8s-7.6 4.8-11.4 7.2c-3.8 2.4-7.8 4.6-11.8 6.6-4 2.2-8 4.2-12 6-4 2-8.2 3.8-12.4 5.4-4.2 1.8-8.4 3.4-12.6 4.8-4.2 1.6-8.4 3-12.8 4.2-4.2 1.4-8.6 2.4-13 3.6l-13.2 3c-4.4 0.8-8.8 1.6-13.2 2.2-4.4 0.6-8.8 1.2-13.4 1.6-4.4 0.4-9 0.8-13.4 1-4.4 0.2-9 0.4-13.4 0.4s-9-0.2-13.4-0.4-9-0.6-13.4-1-9-1-13.4-1.6c-4.4-0.6-8.8-1.4-13.2-2.2-4.4-0.8-8.8-1.8-13.2-3-4.4-1-8.6-2.2-13-3.6-4.2-1.4-8.6-2.8-12.8-4.2l-12.6-4.8c-4.2-1.8-8.2-3.6-12.4-5.4l-12-6c-4-2.2-7.8-4.4-11.8-6.6l-11.4-7.2c-3.8-2.4-7.4-5-11-7.8-3.6-2.6-7.2-5.4-10.6-8.2s-6.8-5.8-10.2-8.8c-3.4-3-6.6-6-9.8-9.2-107-107-107-280.8 0-387.8s280.8-107 387.8 0c107.4 107 107.6 280.8 0.6 387.8zM924.2 85.4h-189.8c-1.6 0-3 0-4.6 0.2-1.6 0.2-3 0.4-4.6 0.6s-3 0.6-4.4 1.2c-1.4 0.4-2.8 1-4.2 1.6-1.4 0.6-2.8 1.2-4.2 2-1.4 0.8-2.6 1.4-4 2.4-1.2 0.8-2.4 1.8-3.6 2.8-1.2 1-2.2 2-3.4 3s-2 2.2-3 3.4c-1 1.2-1.8 2.4-2.8 3.6-0.8 1.2-1.6 2.6-2.4 4-0.8 1.4-1.4 2.8-2 4.2-0.6 1.4-1 2.8-1.6 4.2-0.4 1.4-0.8 3-1.2 4.4-0.2 1.4-0.6 3-0.6 4.6-0.2 1.6-0.2 3-0.2 4.6 0 1.6 0 3 0.2 4.6 0.2 1.6 0.4 3 0.6 4.6 0.2 1.4 0.6 3 1.2 4.4s1 2.8 1.6 4.2c0.6 1.4 1.2 2.8 2 4.2 0.8 1.4 1.4 2.6 2.4 4 0.8 1.2 1.8 2.4 2.8 3.6 1 1.2 2 2.2 3 3.4 1 1 2.2 2 3.4 3 1.2 1 2.4 1.8 3.6 2.8 1.2 0.8 2.6 1.6 4 2.4 1.4 0.8 2.8 1.4 4.2 2 1.4 0.6 2.8 1 4.2 1.6 1.4 0.4 3 0.8 4.4 1.2s3 0.6 4.6 0.6 3 0.2 4.6 0.2h77.8l-127.4 127.4c-143.8-111.6-352.2-101.2-484.2 30.8-143 143.2-143 376 0 519a380.536 380.536 0 0 0 26.6 24.2c4.6 3.8 9.4 7.4 14.2 11 4.8 3.6 9.8 7 14.8 10.4 5 3.4 10 6.6 15.2 9.6s10.4 6 15.6 8.8c5.2 2.8 10.6 5.6 16 8 5.4 2.6 11 5 16.4 7.2 5.6 2.2 11.2 4.4 16.8 6.4 5.6 2 11.4 3.8 17 5.6 5.8 1.8 11.6 3.4 17.4 4.8 5.8 1.4 11.6 2.8 17.6 4 5.8 1.2 11.8 2.2 17.8 3 6 0.8 11.8 1.6 17.8 2.2 6 0.6 12 1 18 1.4 6 0.2 12 0.4 18 0.4s12-0.2 18-0.4 12-0.8 18-1.4c6-0.6 12-1.4 17.8-2.2 6-0.8 11.8-2 17.8-3s11.8-2.4 17.6-4c5.8-1.4 11.6-3 17.4-4.8 5.8-1.8 11.4-3.6 17-5.6 5.6-2 11.2-4.2 16.8-6.4 5.6-2.2 11-4.8 16.4-7.2 5.4-2.6 10.8-5.2 16-8 5.2-2.8 10.6-5.8 15.6-8.8s10.2-6.2 15.2-9.6c5-3.4 10-6.8 14.8-10.4 4.8-3.6 9.6-7.2 14.2-11a383.084 383.084 0 0 0 26.6-24.2c132-132 142.2-340.4 30.8-484.2l127.4-127.4v77.8c0 1.6 0 3 0.2 4.6s0.4 3 0.6 4.6c0.2 1.4 0.6 3 1.2 4.4 0.4 1.4 1 2.8 1.6 4.2 0.6 1.4 1.2 2.8 2 4.2 0.8 1.4 1.4 2.6 2.4 4 0.8 1.2 1.8 2.4 2.8 3.6 1 1.2 2 2.2 3 3.4 1 1 2.2 2 3.4 3 1.2 1 2.4 1.8 3.6 2.8 1.2 0.8 2.6 1.6 4 2.4 1.4 0.8 2.8 1.4 4.2 2 1.4 0.6 2.8 1 4.2 1.6 1.4 0.4 3 0.8 4.4 1.2 1.4 0.2 3 0.6 4.6 0.6 1.6 0.2 3 0.2 4.6 0.2 1.6 0 3 0 4.6-0.2 1.6-0.2 3-0.4 4.6-0.6 1.4-0.2 3-0.6 4.4-1.2 1.4-0.4 2.8-1 4.2-1.6 1.4-0.6 2.8-1.2 4.2-2 1.4-0.8 2.6-1.4 4-2.4 1.2-0.8 2.4-1.8 3.6-2.8 1.2-1 2.2-2 3.4-3s2-2.2 3-3.4 1.8-2.4 2.8-3.6c0.8-1.2 1.6-2.6 2.4-4 0.8-1.4 1.4-2.8 2-4.2 0.6-1.4 1-2.8 1.6-4.2 0.4-1.4 0.8-3 1.2-4.4 0.2-1.4 0.6-3 0.6-4.6 0.2-1.6 0.2-3 0.2-4.6V131.8c0-1.6 0-3-0.2-4.6-0.2-1.6-0.4-3-0.6-4.6-0.2-1.4-0.6-3-1.2-4.4-0.4-1.4-1-2.8-1.6-4.2-0.6-1.4-1.2-2.8-2-4.2-0.8-1.4-1.4-2.6-2.4-4-0.8-1.2-1.8-2.4-2.8-3.6s-2-2.2-3-3.4-2.2-2-3.4-3c-1.2-1-2.4-1.8-3.6-2.8-1.2-0.8-2.6-1.6-4-2.4-1.4-0.8-2.8-1.4-4.2-2-1.4-0.6-2.8-1-4.2-1.6-1.4-0.4-3-0.8-4.4-1.2-1.4-0.2-3-0.6-4.6-0.6-1.4 0.2-3 0.2-4.4 0.2z" p-id="15817" fill="#108CFF"></path></svg>