<?xml version="1.0" standalone="no"?><!DOCTYPE svg PUBLIC "-//W3C//DTD SVG 1.1//EN" "http://www.w3.org/Graphics/SVG/1.1/DTD/svg11.dtd"><svg t="1697551858755" class="icon" viewBox="0 0 1290 1024" version="1.1" xmlns="http://www.w3.org/2000/svg" p-id="4337" width="322.5" height="256" xmlns:xlink="http://www.w3.org/1999/xlink"><path d="M936.875836 412.321315H356.828932v604.636932h-76.505425V415.000548l-106.355726-9.749041c19.610301-20.676384 29.345315-40.384877 40.721534-41.380822 64.512-5.624986 69.856438-45.266411 60.654466-101.838904H125.867836c21.041096-79.857973-19.83474-104.546192-84.487014-121.757808C-32.473425 120.607562 20.564164 57.386082 0 5.091945c434.456548 142.181699 858.602959 143.626521 1281.893699 4.488767 16.945096 116.048658 18.05326 119.808-83.813699 149.868713-58.620493 17.295781-24.744329 61.594301-44.08811 101.31989h-134.747178c-10.057644 51.873315-8.262137 89.817425 49.404493 103.985096 8.753096 2.146192 12.919233 22.990904 22.093151 40.749589l-75.214904 9.033644V1017.827945l-78.665644 3.77337 0.014028-609.28z m-243.010631-50.049753c61.468055 0 116.932384 0.631233 172.368658-0.182357 56.853041-0.827616 84.430904-43.050082 62.323726-94.727013-8.276164-19.357808-18.291726-38.000219-25.137096-52.111781H693.865205v147.021151zM393.089753 214.100164c-9.720986 16.145534-19.357808 32.950356-29.766137 49.26422-26.581918 41.66137-2.398685 95.035616 48.071891 97.939287 59.223671 3.408658 118.784 0.799562 181.62674 0.799562V214.100164H393.089753z" p-id="4338" fill="#B55C58"></path></svg>