<?xml version="1.0" standalone="no"?><!DOCTYPE svg PUBLIC "-//W3C//DTD SVG 1.1//EN" "http://www.w3.org/Graphics/SVG/1.1/DTD/svg11.dtd"><svg t="1717699696713" class="icon" viewBox="0 0 1024 1024" version="1.1" xmlns="http://www.w3.org/2000/svg" p-id="11865" width="256" height="256" xmlns:xlink="http://www.w3.org/1999/xlink"><path d="M876.149733 153.326203C671.714795-51.108734 350.459893-51.108734 146.024955 153.326203-51.108734 350.459893-51.108734 671.714795 146.024955 876.149733c197.13369 197.13369 525.68984 197.13369 722.82353 0 204.434938-204.434938 204.434938-525.68984 7.301248-722.82353z m-372.363637 606.003565c-36.506239 36.506239-73.012478 51.108734-124.121212 51.108735-43.807487 0-87.614973-14.602496-124.121212-51.108735s-51.108734-73.012478-51.108734-124.121212 14.602496-87.614973 51.108734-124.121212l87.614973-73.012478 51.108735 51.108735-80.313726 80.313725c-21.903743 14.602496-29.204991 43.807487-29.204991 65.71123 0 29.204991 7.301248 51.108734 29.204991 73.012478 21.903743 21.903743 43.807487 29.204991 73.012478 29.204991s51.108734-7.301248 73.012478-29.204991l80.313725-80.313726 43.807487 51.108735-80.313726 80.313725z m248.242424-51.108734l-36.506238 36.506239h-14.602496l-7.301248-7.301248-416.171123-408.869875c-7.301248-7.301248-7.301248-14.602496 0-21.903744l36.506239-36.506238h7.301248c7.301248 0 7.301248 0 14.602496 7.301247l423.47237 423.472371-7.301248 7.301248z m7.301248-197.13369L679.016043 591.40107l-51.108735-58.409983 80.313726-80.313725c21.903743-21.903743 29.204991-43.807487 29.204991-73.012478s-7.301248-51.108734-29.204991-73.012478c-14.602496-14.602496-43.807487-21.903743-65.71123-21.903743-29.204991 0-58.409982 7.301248-73.012478 29.204991L489.183601 394.26738 438.074866 343.158645l80.313726-80.313725c36.506239-36.506239 73.012478-51.108734 124.121212-51.108735s87.614973 14.602496 124.121212 51.108735c65.71123 65.71123 65.71123 175.229947-7.301248 248.242424z" fill="#bfbfbf" p-id="11866"></path></svg>